<?xml version="1.0" encoding="UTF-8"?>
<svg version="1.1" xmlns="http://www.w3.org/2000/svg" width="500" height="500">
<path d="M0 0 C7.36722528 6.50723789 14.25965508 18.51077521 15.04394531 28.43798828 C15.41800281 47.64105633 15.41800281 47.64105633 11.8828125 55.3984375 C11.55410156 56.13835937 11.22539062 56.87828125 10.88671875 57.640625 C4.24261939 70.92882372 -6.81168677 79.02929138 -20.47265625 84.12109375 C-25.21852747 85.62484058 -29.49393794 85.73794156 -34.4296875 85.3984375 C-35.25710449 85.34647217 -36.08452148 85.29450684 -36.93701172 85.2409668 C-49.87582168 84.17765847 -61.56227407 77.82303328 -70.48828125 68.44140625 C-77.84411506 59.21574418 -81.7088996 48.42945164 -81.6171875 36.7109375 C-81.61074219 35.84098145 -81.60429687 34.97102539 -81.59765625 34.07470703 C-81.24665129 21.54706286 -77.01385073 11.37314164 -68.1171875 2.3984375 C-47.96371497 -16.58332151 -21.82679105 -16.5110412 0 0 Z " fill="#131313" transform="translate(283.1171875,215.6015625)"/>
<path d="M0 0 C0.33 0.99 0.66 1.98 1 3 C1.60328125 3.04898438 2.2065625 3.09796875 2.828125 3.1484375 C3.62734375 3.22320312 4.4265625 3.29796875 5.25 3.375 C6.03890625 3.44460937 6.8278125 3.51421875 7.640625 3.5859375 C10 4 10 4 11.8125 5.03125 C15.05682689 6.46802334 18.27198492 6.21047107 21.75 6.125 C22.79607422 6.11146484 22.79607422 6.11146484 23.86328125 6.09765625 C25.57566958 6.07419888 27.28788004 6.03833104 29 6 C28.505 3.525 28.505 3.525 28 1 C29.73046875 0.3203125 29.73046875 0.3203125 32 0 C40.169832 4.31898697 46.87263012 12.38840179 50 21 C44.25 20.125 44.25 20.125 42 19 C42.11418667 21.58422459 42.24092362 24.16679513 42.375 26.75 C42.4059375 27.47960937 42.436875 28.20921875 42.46875 28.9609375 C42.68027859 32.83896163 43.15611832 35.60963691 45 39 C45.1953125 41.359375 45.1953125 41.359375 45.125 43.75 C45.10695313 44.54921875 45.08890625 45.3484375 45.0703125 46.171875 C45.04710937 46.77515625 45.02390625 47.3784375 45 48 C45.66 48.33 46.32 48.66 47 49 C43.50429659 52.59851822 39.8747919 55.81406 36 59 C35.34 59.66 34.68 60.32 34 61 C33.46890625 60.59007812 32.9378125 60.18015625 32.390625 59.7578125 C31.68421875 59.21898437 30.9778125 58.68015625 30.25 58.125 C29.55390625 57.59132813 28.8578125 57.05765625 28.140625 56.5078125 C25.23626733 54.42989837 25.23626733 54.42989837 22 53 C19.55831117 53.63086002 19.55831117 53.63086002 17.125 54.875 C13.21533535 56.59849122 10.34106199 57.45695389 6 57 C5.87882812 57.59167969 5.75765625 58.18335938 5.6328125 58.79296875 C5.46523437 59.58316406 5.29765625 60.37335938 5.125 61.1875 C4.96257812 61.96480469 4.80015625 62.74210937 4.6328125 63.54296875 C3.9638008 66.1405512 3.04347512 68.53161138 2 71 C-14.00245136 68.76436341 -14.00245136 68.76436341 -18.34375 63.3125 C-21.25342196 58.15822396 -21.76090284 52.8339707 -22 47 C-20.58774074 46.32404685 -19.16997095 45.65959941 -17.75 45 C-16.96109375 44.62875 -16.1721875 44.2575 -15.359375 43.875 C-13 43 -13 43 -9 43 C-8.96261719 42.41992188 -8.92523438 41.83984375 -8.88671875 41.2421875 C-8.45247637 36.0823663 -7.33053387 32.66106775 -5 28 C-5.11317392 23.47304318 -7.49069695 20.64253669 -10 17 C-10 16.34 -10 15.68 -10 15 C-10.66 14.67 -11.32 14.34 -12 14 C-11.34 14 -10.68 14 -10 14 C-9.79375 13.278125 -9.5875 12.55625 -9.375 11.8125 C-7.52471012 8.02781616 -5.39759562 6.47741347 -2 4 C-1.34 4 -0.68 4 0 4 C0 2.68 0 1.36 0 0 Z " fill="#090909" transform="translate(241,213)"/>
<path d="M0 0 C-0.33 2.31 -0.66 4.62 -1 7 C-16.4091192 8.64601917 -16.4091192 8.64601917 -23 5 C-25.89706707 3.75322994 -25.89706707 3.75322994 -29 4 C-33.25861262 6.22683179 -36.31693052 9.15077849 -39.3125 12.875 C-40.30074272 15.87021443 -40.30074272 15.87021443 -39.08984375 17.98046875 C-38.18754107 19.38258925 -37.25694988 20.76685731 -36.30078125 22.1328125 C-34.59291709 24.58434123 -33.92641681 25.98308932 -34 29 C-34.89555692 31.31892998 -35.92320329 33.53689851 -37.0078125 35.7734375 C-38.21260874 38.47711411 -38.69889455 41.06422185 -39 44 C-39.68707031 44.20496094 -40.37414062 44.40992188 -41.08203125 44.62109375 C-41.98308594 44.89050781 -42.88414062 45.15992188 -43.8125 45.4375 C-44.70582031 45.70433594 -45.59914062 45.97117187 -46.51953125 46.24609375 C-48.35473055 46.80387873 -50.18033726 47.39344575 -52 48 C-51.54678672 50.06363112 -51.08720894 52.12586507 -50.625 54.1875 C-50.36976563 55.33605469 -50.11453125 56.48460937 -49.8515625 57.66796875 C-49.10075272 60.60577032 -48.3088464 63.26740848 -47 66 C-46.34 66.33 -45.68 66.66 -45 67 C-45.99 67.99 -46.98 68.98 -48 70 C-42.97360319 76.28299601 -35.61534866 78.42949941 -28.1875 80.95703125 C-27.465625 81.30121094 -26.74375 81.64539063 -26 82 C-25.67 82.99 -25.34 83.98 -25 85 C-37.54580844 84.07068086 -46.81665201 78.71159339 -55.25 69.5625 C-63.88241078 59.40970375 -66.65732098 48.93318727 -66.34765625 35.64453125 C-65.83338523 30.25335304 -64.37305329 25.84251187 -62 21 C-61.5875 20.14792969 -61.175 19.29585937 -60.75 18.41796875 C-54.57043662 6.98928762 -45.03284573 0.4157232 -33 -4 C-21.76467999 -6.91549443 -10.1901772 -5.3025809 0 0 Z " fill="#171717" transform="translate(271,212)"/>
<path d="M0 0 C5.56818182 0.56818182 5.56818182 0.56818182 7 2 C7.01696174 4.66832963 6.97101299 7.30742795 6.87890625 9.97265625 C6.85529526 10.77029892 6.83168427 11.56794159 6.80735779 12.38975525 C6.7305374 14.94750973 6.64659285 17.50497527 6.5625 20.0625 C6.50929767 21.79230338 6.45655717 23.52212103 6.40429688 25.25195312 C6.27489758 29.50148644 6.13910688 33.75077382 6 38 C-8.06399935 43.38604485 -22.19067048 48.54233304 -36.45288086 53.38134766 C-41.99152369 55.26135906 -47.50646276 57.16504594 -52.96875 59.2578125 C-53.87012695 59.5966748 -54.77150391 59.93553711 -55.70019531 60.28466797 C-57.33197025 60.90244259 -58.95722278 61.5379131 -60.57324219 62.19580078 C-70.5782164 65.93708178 -79.8398333 60.75185335 -89.3125 57.1875 C-91.27045497 56.45848754 -93.22926376 55.73180416 -95.18817139 55.00535583 C-96.57352683 54.49160496 -97.95865463 53.97723988 -99.34356689 53.46229553 C-108.16569878 50.1859916 -117.02127149 47.00217577 -125.875 43.8125 C-127.49001048 43.23011798 -129.10500119 42.64768115 -130.7199707 42.06518555 C-134.47968589 40.70930507 -138.23973583 39.35435719 -142 38 C-142.16888647 33.99842475 -142.32929688 29.99660428 -142.48217773 25.99438477 C-142.53524006 24.63557001 -142.59053669 23.27684045 -142.64819336 21.91821289 C-142.73111238 19.95483463 -142.80508139 17.99108498 -142.87890625 16.02734375 C-142.9260376 14.84906006 -142.97316895 13.67077637 -143.02172852 12.45678711 C-142.99926408 8.88292221 -142.58407979 5.52217815 -142 2 C-139.69 2 -137.38 2 -135 2 C-132.22206341 11.39207134 -134.2056836 22.41146627 -135 32 C-133.73414063 32.36480469 -132.46828125 32.72960937 -131.1640625 33.10546875 C-123.67291475 35.35439404 -116.28655738 37.91424475 -108.88916016 40.45092773 C-106.4024256 41.30310158 -103.91418707 42.15076759 -101.42578125 42.99804688 C-99.79156903 43.55700629 -98.15745385 44.11624949 -96.5234375 44.67578125 C-95.72089539 44.948992 -94.91835327 45.22220276 -94.0914917 45.50369263 C-90.19934006 46.8418883 -86.35159905 48.2364274 -82.54003906 49.79052734 C-81.83231354 50.07453903 -81.12458801 50.35855072 -80.39541626 50.65116882 C-78.4894764 51.42450976 -76.59317617 52.22149124 -74.69775391 53.02026367 C-67.40651072 54.95211095 -60.89960388 52.9415662 -54.01953125 50.33984375 C-53.29182022 50.07399475 -52.56410919 49.80814575 -51.81434631 49.53424072 C-49.47686741 48.67792564 -47.14479642 47.80781845 -44.8125 46.9375 C-43.2017034 46.34510634 -41.59053534 45.7537218 -39.97900391 45.16333008 C-36.03370396 43.71589909 -32.09226651 42.25829186 -28.15203857 40.79711914 C-24.01101248 39.26327528 -19.86516983 37.742674 -15.7175293 36.22680664 C-13.86726812 35.55030043 -12.01839061 34.86999376 -10.17114258 34.18530273 C-4.22269472 32 -4.22269472 32 -2 32 C-2.01047363 31.10168457 -2.02094727 30.20336914 -2.03173828 29.27783203 C-2.0657947 25.94935553 -2.09088618 22.62106378 -2.10986328 19.29248047 C-2.11992963 17.85104453 -2.1335838 16.40962905 -2.15087891 14.96826172 C-2.17510012 12.89806066 -2.18647641 10.82812924 -2.1953125 8.7578125 C-2.20578613 7.5114502 -2.21625977 6.26508789 -2.22705078 4.98095703 C-2 2 -2 2 0 0 Z " fill="#29840F" transform="translate(318,298)"/>
<path d="M0 0 C1.34579145 0.27880863 2.67829284 0.62319891 4 1 C5.9174586 1.09984386 7.8379776 1.14608831 9.75799561 1.15821838 C11.52059471 1.17290161 11.52059471 1.17290161 13.31880188 1.18788147 C14.60417343 1.19363693 15.88954498 1.1993924 17.21386719 1.20532227 C18.58390089 1.21490461 19.95393166 1.2249149 21.32395935 1.23532104 C25.04052731 1.26233763 28.75710793 1.28336474 32.4737196 1.30332303 C36.35882557 1.32520262 40.24389268 1.35258166 44.12896729 1.37937927 C51.48470921 1.42927948 58.84047273 1.47422822 66.19625688 1.51740164 C74.57106478 1.56679685 82.94583368 1.62170651 91.32060385 1.67708123 C108.54703317 1.79086025 125.77349871 1.89770817 143 2 C143.14586576 7.0637918 143.28806594 12.12767042 143.42724609 17.19165039 C143.47480513 18.90489299 143.52326956 20.61811076 143.57275391 22.33129883 C143.7424489 28.22040783 143.88652656 34.10953232 144 40 C144.02658691 41.34164215 144.02658691 41.34164215 144.05371094 42.71038818 C144.10017934 45.35250831 144.13090854 47.99431995 144.15625 50.63671875 C144.1711145 51.44800735 144.185979 52.25929596 144.20129395 53.09516907 C144.21138612 55.06456353 144.1149298 57.03393603 144 59 C142 61 142 61 138.9375 61.1875 C136 61 136 61 135 60 C135 43.17 135 26.34 135 9 C91.44 9 47.88 9 3 9 C3 13.95 3 18.9 3 24 C2.94288906 27.11543202 2.87717725 30.22598419 2.78125 33.33984375 C2.74795593 34.50659386 2.74795593 34.50659386 2.71398926 35.69691467 C2.64466704 38.11050656 2.57240746 40.52399893 2.5 42.9375 C2.45162516 44.60350989 2.40344703 46.26952551 2.35546875 47.93554688 C2.23923725 51.95710057 2.12037722 55.97856835 2 60 C-1.01031744 60.93423645 -1.86650268 61.04449911 -5 60 C-5.01030746 59.41784225 -5.02061493 58.83568451 -5.03123474 58.23588562 C-5.13928566 52.18521866 -5.25388492 46.13470105 -5.37231445 40.08422852 C-5.4156678 37.82514567 -5.45734258 35.56602997 -5.49731445 33.30688477 C-5.55500713 30.06256196 -5.61870469 26.8184046 -5.68359375 23.57421875 C-5.70030624 22.56163498 -5.71701874 21.54905121 -5.73423767 20.50578308 C-5.75418289 19.56503433 -5.77412811 18.62428558 -5.79467773 17.6550293 C-5.81022202 16.82674118 -5.8257663 15.99845306 -5.84178162 15.14506531 C-5.92540723 12.81446753 -5.92540723 12.81446753 -7 10 C-7.99 9.67 -8.98 9.34 -10 9 C-8.43122326 7.4641556 -6.84443846 5.94668669 -5.25 4.4375 C-4.36828125 3.59058594 -3.4865625 2.74367187 -2.578125 1.87109375 C-1.72734375 1.25363281 -0.8765625 0.63617188 0 0 Z " fill="#258109" transform="translate(181,155)"/>
<path d="M0 0 C4.49377256 2.58577027 7.41422973 5.50622744 10 10 C10.92468875 14.97437985 11.3198297 20.3603406 9 25 C3.53182631 26.19092126 -1.35553949 26.98035146 -6.25 24.0625 C-6.8275 23.381875 -7.405 22.70125 -8 22 C-5.875 23.4375 -5.875 23.4375 -4 26 C-4.11805534 29.16264047 -5.05626962 31.99587397 -6 35 C-6.15339844 35.721875 -6.30679687 36.44375 -6.46484375 37.1875 C-7.35870814 40.63246641 -8.26989496 42.45898691 -11.171875 44.609375 C-16.03443659 47.23221125 -20.41880041 49.09435286 -26 48 C-28.5 45.9375 -28.5 45.9375 -31 43 C-31.61488281 42.46890625 -32.22976562 41.9378125 -32.86328125 41.390625 C-36.31745838 38.37254638 -37.84327373 36.79669187 -38.75 32.1875 C-38.19546468 26.91941445 -36.28821663 22.14505705 -33 18 C-28.20877462 14.89088536 -22.72377682 13.16237412 -17 14 C-16.01 14.66 -15.02 15.32 -14 16 C-14.66 15.34 -15.32 14.68 -16 14 C-16.046875 10.99609375 -16.046875 10.99609375 -15.75 7.4375 C-15.66234375 6.26058594 -15.5746875 5.08367187 -15.484375 3.87109375 C-15.32453125 2.92363281 -15.1646875 1.97617188 -15 1 C-10.3603406 -1.3198297 -4.97437985 -0.92468875 0 0 Z " fill="#F9F9F9" transform="translate(272,221)"/>
<path d="M0 0 C7.36722528 6.50723789 14.25965508 18.51077521 15.04394531 28.43798828 C15.41800281 47.64105633 15.41800281 47.64105633 11.8828125 55.3984375 C11.55410156 56.13835937 11.22539062 56.87828125 10.88671875 57.640625 C4.24261939 70.92882372 -6.81168677 79.02929138 -20.47265625 84.12109375 C-25.21852747 85.62484058 -29.49393794 85.73794156 -34.4296875 85.3984375 C-35.25710449 85.34647217 -36.08452148 85.29450684 -36.93701172 85.2409668 C-49.87582168 84.17765847 -61.56227407 77.82303328 -70.48828125 68.44140625 C-77.84411506 59.21574418 -81.7088996 48.42945164 -81.6171875 36.7109375 C-81.61074219 35.84098145 -81.60429687 34.97102539 -81.59765625 34.07470703 C-81.24665129 21.54706286 -77.01385073 11.37314164 -68.1171875 2.3984375 C-47.96371497 -16.58332151 -21.82679105 -16.5110412 0 0 Z M-66.6796875 5.5234375 C-75.48583945 15.91018082 -78.93933497 28.00420823 -78.29199219 41.41894531 C-77.43581056 51.11436525 -73.23586159 59.02999168 -67.1171875 66.3984375 C-66.59382812 67.04554688 -66.07046875 67.69265625 -65.53125 68.359375 C-58.614243 76.08617794 -47.83333159 80.7552433 -37.609375 81.734375 C-22.82701431 81.89401172 -11.30824911 78.22117973 -0.4296875 68.1484375 C9.3803148 57.76940954 12.51493471 46.00769222 12.16015625 31.97265625 C11.24894114 20.22953195 5.66015202 10.72869255 -2.7421875 2.5859375 C-22.46228122 -14.23503065 -48.31356848 -11.46522259 -66.6796875 5.5234375 Z " fill="#F1F1F1" transform="translate(283.1171875,215.6015625)"/>
<path d="M0 0 C0.70859665 0.19880642 1.4171933 0.39761284 2.14726257 0.6024437 C6.23657413 1.55294161 10.3508947 1.49403545 14.53283691 1.54714966 C15.50936218 1.56694885 16.48588745 1.58674805 17.49200439 1.60714722 C20.69497233 1.66993261 23.89799943 1.71971395 27.10119629 1.76931763 C29.3318021 1.81049523 31.56239299 1.85248915 33.79296875 1.89526367 C39.64534362 2.00530768 45.49785466 2.10430013 51.35046387 2.20095825 C57.32999701 2.30167986 63.30933398 2.4128993 69.28869629 2.52322388 C81.00727845 2.73790031 92.72603141 2.94089683 104.44494629 3.13650513 C104.11494629 3.79650513 103.78494629 4.45650513 103.44494629 5.13650513 C102.37800537 5.15934067 101.31106445 5.18217621 100.21179199 5.20570374 C90.09199055 5.42272509 79.97226971 5.64321795 69.85261536 5.86699581 C64.65165677 5.98189707 59.45067844 6.09563075 54.24963379 6.20657349 C49.2180232 6.31394707 44.18649242 6.42454772 39.15499878 6.53726387 C37.24798014 6.57944129 35.34093663 6.62051093 33.43386841 6.66038322 C22.07954868 6.89862169 10.77369642 7.3183079 -0.55505371 8.13650513 C-0.54989746 9.09306 -0.54474121 10.04961487 -0.53942871 11.03515625 C-0.49209154 21.38951611 -0.74457287 31.72499095 -1.05505371 42.07400513 C-1.10342855 43.74001502 -1.15160668 45.40603064 -1.19958496 47.072052 C-1.31581646 51.0936057 -1.43467649 55.11507348 -1.55505371 59.13650513 C-4.56537115 60.07074157 -5.42155639 60.18100424 -8.55505371 59.13650513 C-8.56536118 58.55434738 -8.57566864 57.97218964 -8.58628845 57.37239075 C-8.69433937 51.32172379 -8.80893863 45.27120618 -8.92736816 39.22073364 C-8.97072151 36.9616508 -9.01239629 34.7025351 -9.05236816 32.44338989 C-9.11006084 29.19906709 -9.1737584 25.95490973 -9.23864746 22.71072388 C-9.25535995 21.69814011 -9.27207245 20.68555634 -9.28929138 19.64228821 C-9.3092366 18.70153946 -9.32918182 17.76079071 -9.34973145 16.79153442 C-9.36527573 15.96324631 -9.38082001 15.13495819 -9.39683533 14.28157043 C-9.48046094 11.95097266 -9.48046094 11.95097266 -10.55505371 9.13650513 C-11.54505371 8.80650513 -12.53505371 8.47650513 -13.55505371 8.13650513 C-12.08611095 6.56521799 -10.57832208 5.03018534 -9.05505371 3.51150513 C-8.21974121 2.6529895 -7.38442871 1.79447388 -6.52380371 0.90994263 C-3.55505371 -0.86349487 -3.55505371 -0.86349487 0 0 Z " fill="#238B05" transform="translate(184.5550537109375,155.86349487304688)"/>
<path d="M0 0 C4.29350884 3.19351897 8.02566633 6.5384995 11 11 C14.56769552 11.73606499 14.56769552 11.73606499 18 12 C18 12.33 18 12.66 18 13 C16.02 13 14.04 13 12 13 C11.87882812 13.59167969 11.75765625 14.18335938 11.6328125 14.79296875 C11.46523437 15.58316406 11.29765625 16.37335938 11.125 17.1875 C10.96257812 17.96480469 10.80015625 18.74210937 10.6328125 19.54296875 C9.9638008 22.1405512 9.04347512 24.53161138 8 27 C-8.00245136 24.76436341 -8.00245136 24.76436341 -12.34375 19.3125 C-15.25342196 14.15822396 -15.76090284 8.8339707 -16 3 C-6.15877081 -2.199561 -6.15877081 -2.199561 0 0 Z " fill="#050505" transform="translate(235,257)"/>
<path d="M0 0 C3.69351879 2.46234586 6.95603615 5.21451069 10.0625 8.375 C6.06943756 19.09055996 6.06943756 19.09055996 1.42578125 22.0625 C-3.18344125 23.77287997 -8.03207538 25.28763714 -12.9375 24.375 C-16.41430873 22.39799112 -19.16776238 20.22644079 -21.9375 17.375 C-21.45890759 15.77066191 -20.97960442 14.16653584 -20.5 12.5625 C-20.23316406 11.66917969 -19.96632812 10.77585937 -19.69140625 9.85546875 C-19.13362127 8.02026945 -18.54405425 6.19466274 -17.9375 4.375 C-15.35546875 3.49609375 -15.35546875 3.49609375 -12.125 2.8125 C-8.52969565 2.03738566 -3.32697113 -1.07321649 0 0 Z " fill="#F8F8F8" transform="translate(264.9375,265.625)"/>
<path d="M0 0 C0.33 0.99 0.66 1.98 1 3 C1.60328125 3.04898438 2.2065625 3.09796875 2.828125 3.1484375 C3.62734375 3.22320312 4.4265625 3.29796875 5.25 3.375 C6.03890625 3.44460937 6.8278125 3.51421875 7.640625 3.5859375 C10 4 10 4 11.8125 5.03125 C15.05682689 6.46802334 18.27198492 6.21047107 21.75 6.125 C22.79607422 6.11146484 22.79607422 6.11146484 23.86328125 6.09765625 C25.57566958 6.07419888 27.28788004 6.03833104 29 6 C29.33 5.01 29.66 4.02 30 3 C30 4.65 30 6.3 30 8 C25.38 8.33 20.76 8.66 16 9 C15.9071875 12.09375 15.9071875 12.09375 15.8125 15.25 C15.77769531 16.41015625 15.74289062 17.5703125 15.70703125 18.765625 C16.02017066 22.22268407 16.65709108 23.51565563 19 26 C15.125 24.125 15.125 24.125 14 23 C8.31657812 23.04878474 2.84057416 23.962777 -2 27 C-5.50499836 32.23086381 -6.55070805 37.82223564 -7 44 C-7.66 43.67 -8.32 43.34 -9 43 C-8.62619529 37.19958216 -7.61894609 33.23789218 -5 28 C-5.11317392 23.47304318 -7.49069695 20.64253669 -10 17 C-10 16.34 -10 15.68 -10 15 C-10.66 14.67 -11.32 14.34 -12 14 C-11.34 14 -10.68 14 -10 14 C-9.79375 13.278125 -9.5875 12.55625 -9.375 11.8125 C-7.52471012 8.02781616 -5.39759562 6.47741347 -2 4 C-1.34 4 -0.68 4 0 4 C0 2.68 0 1.36 0 0 Z " fill="#101010" transform="translate(241,213)"/>
<path d="M0 0 C2.91725654 3.66247472 6.11630276 8.23158696 6 13 C5.10444308 15.31892998 4.07679671 17.53689851 2.9921875 19.7734375 C1.78739126 22.47711411 1.30110545 25.06422185 1 28 C-0.57914015 28.53341184 -2.16354387 29.05125763 -3.75 29.5625 C-4.63171875 29.85253906 -5.5134375 30.14257812 -6.421875 30.44140625 C-9.14382335 31.03116173 -10.44364392 31.03987366 -13 30 C-16.63725472 26.61073992 -17.84728204 25.16447443 -18.5 20.1875 C-18.05531284 14.51502715 -17.31233076 9.09336004 -12.9375 5.1328125 C-8.83983498 2.3156678 -5.08885198 0 0 0 Z " fill="#F9F9F9" transform="translate(231,228)"/>
<path d="M0 0 C44.55 0 89.1 0 135 0 C134.67 0.66 134.34 1.32 134 2 C127.73 2.33 121.46 2.66 115 3 C118.26066418 4.63033209 121.86484808 4.3432424 125.46875 4.5234375 C126.72171875 4.75933594 126.72171875 4.75933594 128 5 C130.23551759 8.35327639 130.17283528 8.90743657 129.625 12.6875 C129.51414062 13.49574219 129.40328125 14.30398437 129.2890625 15.13671875 C129.19367188 15.75160156 129.09828125 16.36648437 129 17 C128.67 17 128.34 17 128 17 C127.67 13.7 127.34 10.4 127 7 C88.72 6.67 50.44 6.34 11 6 C11 5.67 11 5.34 11 5 C40.04 4.34 69.08 3.68 99 3 C66.33 2.34 33.66 1.68 0 1 C0 0.67 0 0.34 0 0 Z " fill="#388221" transform="translate(189,157)"/>
<path d="M0 0 C1.58246707 -0.08153933 3.16616273 -0.13943557 4.75 -0.1875 C6.07257813 -0.23970703 6.07257813 -0.23970703 7.421875 -0.29296875 C10.55350518 0.06289832 11.84726203 0.70308327 14 3 C14.42578125 5.41015625 14.42578125 5.41015625 14.3125 8.0625 C14.28800781 8.94035156 14.26351563 9.81820313 14.23828125 10.72265625 C14 13 14 13 13 15 C13.33 15.66 13.66 16.32 14 17 C14.07065617 19.04055005 14.08421976 21.08334257 14.0625 23.125 C14.05347656 24.22070312 14.04445313 25.31640625 14.03515625 26.4453125 C14.02355469 27.28835938 14.01195312 28.13140625 14 29 C13.01 29.33 12.02 29.66 11 30 C10.34 29.67 9.68 29.34 9 29 C8.5859375 26.49609375 8.5859375 26.49609375 8.375 23.4375 C8.26285156 21.91962891 8.26285156 21.91962891 8.1484375 20.37109375 C8.09945313 19.58863281 8.05046875 18.80617188 8 18 C7.01 18 6.02 18 5 18 C5 21.63 5 25.26 5 29 C4.34 29.33 3.68 29.66 3 30 C2.01 29.67 1.02 29.34 0 29 C-1.04590427 26.24124892 -1.1283305 23.59209112 -1.1328125 20.6640625 C-1.13410156 19.84679687 -1.13539063 19.02953125 -1.13671875 18.1875 C-1.13285156 17.341875 -1.12898438 16.49625 -1.125 15.625 C-1.12886719 14.78710938 -1.13273437 13.94921875 -1.13671875 13.0859375 C-1.12968189 8.61049307 -0.90387448 4.40459471 0 0 Z M5 5 C5 7.64 5 10.28 5 13 C5.99 12.67 6.98 12.34 8 12 C8.33 10.02 8.66 8.04 9 6 C7.68 5.67 6.36 5.34 5 5 Z " fill="#24760C" transform="translate(290,302)"/>
<path d="M0 0 C4.06350615 4.40021267 3.51554275 8.73719725 3.5 14.4375 C3.52835938 15.37916016 3.55671875 16.32082031 3.5859375 17.29101562 C3.59916325 21.97623929 3.52498871 24.28192222 0.6953125 28.15234375 C-2 30 -2 30 -5.625 30.125 C-9 29 -9 29 -10.69140625 27.02734375 C-12.52597533 22.78319139 -12.39954566 19.00913823 -12.3125 14.4375 C-12.31572266 13.58736328 -12.31894531 12.73722656 -12.32226562 11.86132812 C-12.28617288 7.67785126 -12.25403124 4.645949 -10 1 C-6.89079391 -0.55460305 -3.36916972 -0.72720693 0 0 Z M-6 5 C-6 11.27 -6 17.54 -6 24 C-5.01 24 -4.02 24 -3 24 C-1.55611429 22.78571012 -1.55611429 22.78571012 -1.90234375 19.18359375 C-1.90901911 17.60153318 -1.92098125 16.01948841 -1.9375 14.4375 C-1.94201172 13.63119141 -1.94652344 12.82488281 -1.95117188 11.99414062 C-1.96299482 9.99606244 -1.98093086 7.99802217 -2 6 C-3.32 5.67 -4.64 5.34 -6 5 Z " fill="#317A1C" transform="translate(226,302)"/>
<path d="M0 0 C2.64 0 5.28 0 8 0 C8.73762658 3.96801382 9.46786208 7.93730793 10.19116211 11.90795898 C10.43846202 13.25957248 10.68780726 14.61081336 10.93920898 15.96166992 C11.29944005 17.89924414 11.65179944 19.83827669 12.00390625 21.77734375 C12.21861572 22.94515381 12.4333252 24.11296387 12.65454102 25.31616211 C12.82554321 26.64466187 12.82554321 26.64466187 13 28 C12 29 12 29 9.4375 29.0625 C8.633125 29.041875 7.82875 29.02125 7 29 C6.67 28.01 6.34 27.02 6 26 C4.68 26 3.36 26 2 26 C1.67 26.99 1.34 27.98 1 29 C-0.65 29.33 -2.3 29.66 -4 30 C-5.20636873 26.38089381 -4.72162208 24.52940252 -4.00390625 20.80078125 C-3.77509766 19.59228516 -3.54628906 18.38378906 -3.31054688 17.13867188 C-3.06369141 15.87603516 -2.81683594 14.61339844 -2.5625 13.3125 C-2.19801758 11.40114258 -2.19801758 11.40114258 -1.82617188 9.45117188 C-1.22415379 6.29943015 -0.61516415 3.14919766 0 0 Z M3 11 C3 13.64 3 16.28 3 19 C3.66 19 4.32 19 5 19 C5.16681109 16.08347826 5.16681109 16.08347826 5 13 C4.34 12.34 3.68 11.68 3 11 Z " fill="#277A10" transform="translate(271,170)"/>
<path d="M0 0 C1.0209375 -0.01160156 1.0209375 -0.01160156 2.0625 -0.0234375 C4.62811188 0.50416817 5.47230626 1.25653647 7 3.375 C7.78887595 6.99419422 7.84057554 10.67925114 8 14.375 C8.05285156 15.28894531 8.10570312 16.20289063 8.16015625 17.14453125 C8.2908358 20.93423825 8.187938 23.83329636 6.9375 27.4375 C5 29.375 5 29.375 1.625 30.4375 C-2 30.375 -2 30.375 -4.6953125 29.09375 C-8.36398232 24.76596323 -7.64809139 20.29524716 -7.5 14.8125 C-7.50257813 13.75869141 -7.50515625 12.70488281 -7.5078125 11.61914062 C-7.40926395 3.89786166 -7.40926395 3.89786166 -5.59179688 1.57592773 C-3.60528987 0.07721179 -2.46932399 -0.0280605 0 0 Z M0 4.375 C-2.1665597 6.13009765 -2.1665597 6.13009765 -2.22705078 8.25439453 C-2.21657715 8.99802246 -2.20610352 9.74165039 -2.1953125 10.5078125 C-2.18886719 11.31347656 -2.18242187 12.11914062 -2.17578125 12.94921875 C-2.15902344 13.79097656 -2.14226562 14.63273438 -2.125 15.5 C-2.11597656 16.34949219 -2.10695312 17.19898438 -2.09765625 18.07421875 C-2.07405647 20.17459884 -2.03818483 22.27483444 -2 24.375 C-0.68 24.375 0.64 24.375 2 24.375 C2 18.105 2 11.835 2 5.375 C1.34 5.045 0.68 4.715 0 4.375 Z " fill="#248407" transform="translate(226,169.625)"/>
<path d="M0 0 C1.17369141 0.04253906 1.17369141 0.04253906 2.37109375 0.0859375 C3.15613281 0.09882813 3.94117188 0.11171875 4.75 0.125 C6.80859375 0.4609375 6.80859375 0.4609375 8.80859375 2.4609375 C9.37379378 5.11631122 9.54647573 7.75238463 9.80859375 10.4609375 C6.05859375 11.5859375 6.05859375 11.5859375 3.80859375 10.4609375 C3.80859375 8.8109375 3.80859375 7.1609375 3.80859375 5.4609375 C2.81859375 5.9559375 2.81859375 5.9559375 1.80859375 6.4609375 C1.47859375 12.4009375 1.14859375 18.3409375 0.80859375 24.4609375 C1.79859375 24.4609375 2.78859375 24.4609375 3.80859375 24.4609375 C4.13859375 22.4809375 4.46859375 20.5009375 4.80859375 18.4609375 C6.45859375 18.4609375 8.10859375 18.4609375 9.80859375 18.4609375 C9.72113091 19.89955044 9.61294027 21.33691258 9.49609375 22.7734375 C9.43808594 23.57394531 9.38007813 24.37445313 9.3203125 25.19921875 C8.71243953 27.88592449 8.01033604 28.83535207 5.80859375 30.4609375 C2.13596627 30.92836282 -0.18197196 31.07701573 -3.38671875 29.12109375 C-6.28334795 24.85138707 -5.72969243 20.4937443 -5.62890625 15.4609375 C-5.63599609 14.46320313 -5.64308594 13.46546875 -5.65039062 12.4375 C-5.55219655 1.1678417 -5.55219655 1.1678417 0 0 Z " fill="#2D7E12" transform="translate(257.19140625,301.5390625)"/>
<path d="M0 0 C5.47604132 0.15556936 5.47604132 0.15556936 8 1.62109375 C9.4656203 4.20748252 9.80670092 6.55440435 10.0625 9.49609375 C9.0625 10.49609375 9.0625 10.49609375 6.5 10.55859375 C5.695625 10.53796875 4.89125 10.51734375 4.0625 10.49609375 C4.0625 8.84609375 4.0625 7.19609375 4.0625 5.49609375 C3.0725 5.49609375 2.0825 5.49609375 1.0625 5.49609375 C0.94980557 11.60663615 1.16645632 17.44779889 2.0625 23.49609375 C2.3925 23.49609375 2.7225 23.49609375 3.0625 23.49609375 C3.3925 21.84609375 3.7225 20.19609375 4.0625 18.49609375 C7.8125 17.37109375 7.8125 17.37109375 10.0625 18.49609375 C10.54622093 25.7519077 10.54622093 25.7519077 8.4375 28.99609375 C5.29936002 30.97807689 3.71376535 31.16673433 0.0625 30.49609375 C-2.88252093 28.42030807 -4.6831936 26.80717532 -5.38647461 23.18139648 C-5.53890537 20.41579359 -5.52087278 17.70194915 -5.4375 14.93359375 C-5.44007813 13.98806641 -5.44265625 13.04253906 -5.4453125 12.06835938 C-5.29389389 1.35549299 -5.29389389 1.35549299 0 0 Z " fill="#277F0D" transform="translate(242.9375,169.50390625)"/>
<path d="M0 0 C2.29013653 3.4352048 2.17842973 4.985331 2 9 C0.35 9.33 -1.3 9.66 -3 10 C-3.33 8.35 -3.66 6.7 -4 5 C-4.99 4.67 -5.98 4.34 -7 4 C-6.67 9.94 -6.34 15.88 -6 22 C-5.34 22.33 -4.68 22.66 -4 23 C-3.67 21.02 -3.34 19.04 -3 17 C-1.35 17 0.3 17 2 17 C2.48192771 24.22891566 2.48192771 24.22891566 0.4375 27.5 C-2.91034349 29.56021138 -5.14014247 29.49125459 -9 29 C-10.68994141 27.8125 -10.68994141 27.8125 -12 26 C-12.38818359 23.50390625 -12.38818359 23.50390625 -12.3984375 20.5625 C-12.40230469 19.50289063 -12.40617188 18.44328125 -12.41015625 17.3515625 C-12.39855469 16.24554688 -12.38695312 15.13953125 -12.375 14 C-12.38660156 12.89398438 -12.39820313 11.78796875 -12.41015625 10.6484375 C-12.40628906 9.58882813 -12.40242187 8.52921875 -12.3984375 7.4375 C-12.39505371 6.46683594 -12.39166992 5.49617188 -12.38818359 4.49609375 C-11.93548805 1.58517599 -11.34575913 0.72504577 -9 -1 C-5.18652885 -2.27115705 -3.64026964 -1.54905091 0 0 Z " fill="#26820A" transform="translate(246,303)"/>
<path d="M0 0 C2.45321644 2.83653151 3 4.25123496 3 8 C1.35 8.33 -0.3 8.66 -2 9 C-2.33 8.01 -2.66 7.02 -3 6 C-3.99 5.67 -4.98 5.34 -6 5 C-4.92851124 8.53591291 -3.44481618 10.6909416 -0.9375 13.3125 C2.50788695 17.20765421 3.25239382 19.78386104 3 25 C1 28.0625 1 28.0625 -2 30 C-6.02034924 29.93185849 -8.1176825 29.8823175 -11 27 C-11.39764263 25.01178687 -11.73775349 23.01055661 -12 21 C-10.35 20.67 -8.7 20.34 -7 20 C-6.01 21.32 -5.02 22.64 -4 24 C-4.24492597 20.08118453 -5.62264153 18.09810764 -8.0625 15.1875 C-10.33553822 12.30248995 -11.45360701 10.38986161 -11.5625 6.6875 C-11 3 -11 3 -10 1 C-6.74162899 -0.6291855 -3.54558907 -0.80514418 0 0 Z " fill="#28840E" transform="translate(207,302)"/>
<path d="M0 0 C1.79244141 0.01740234 1.79244141 0.01740234 3.62109375 0.03515625 C5.41740234 0.04869141 5.41740234 0.04869141 7.25 0.0625 C8.17683594 0.07410156 9.10367187 0.08570313 10.05859375 0.09765625 C9.72859375 1.74765625 9.39859375 3.39765625 9.05859375 5.09765625 C6.74859375 5.09765625 4.43859375 5.09765625 2.05859375 5.09765625 C2.05859375 7.40765625 2.05859375 9.71765625 2.05859375 12.09765625 C4.03859375 12.09765625 6.01859375 12.09765625 8.05859375 12.09765625 C8.05859375 13.74765625 8.05859375 15.39765625 8.05859375 17.09765625 C6.07859375 17.09765625 4.09859375 17.09765625 2.05859375 17.09765625 C2.05859375 19.40765625 2.05859375 21.71765625 2.05859375 24.09765625 C4.36859375 24.09765625 6.67859375 24.09765625 9.05859375 24.09765625 C9.71859375 25.41765625 10.37859375 26.73765625 11.05859375 28.09765625 C10.05859375 29.09765625 10.05859375 29.09765625 6.8984375 29.1953125 C5.61066406 29.18371094 4.32289063 29.17210937 2.99609375 29.16015625 C1.70574219 29.15113281 0.41539062 29.14210938 -0.9140625 29.1328125 C-1.91308594 29.12121094 -2.91210938 29.10960937 -3.94140625 29.09765625 C-3.96606506 25.12834636 -3.98424648 21.15906591 -3.99633789 17.18969727 C-4.00137682 15.83845239 -4.00820802 14.48721299 -4.0168457 13.13598633 C-4.02893044 11.19745191 -4.03410453 9.25887825 -4.0390625 7.3203125 C-4.04429932 6.15250244 -4.04953613 4.98469238 -4.05493164 3.78149414 C-3.89582625 0.02010589 -3.79595559 0.12602774 0 0 Z " fill="#327D1B" transform="translate(274.94140625,301.90234375)"/>
<path d="M0 0 C1.875 0.3203125 1.875 0.3203125 3.875 1.5078125 C5.18394168 3.88026929 5.09120175 5.6538243 4.875 8.3203125 C3.885 8.8153125 3.885 8.8153125 2.875 9.3203125 C-0.125 8.3203125 -0.125 8.3203125 -2.125 5.3203125 C-2.41833848 8.35846103 -2.53570603 9.80483452 -0.59375 12.2421875 C0.0559375 12.84546875 0.705625 13.44875 1.375 14.0703125 C4.19547854 17.0853068 5.42019383 18.96527468 5.5625 23.1328125 C5.30567176 25.99249622 5.03918041 27.09702714 3.3125 29.4453125 C-0.21546549 30.71176165 -2.53878422 30.29837135 -6.125 29.3203125 C-8.62146958 27.06543675 -9.08361614 25.92727574 -9.3125 22.5703125 C-9.250625 21.8278125 -9.18875 21.0853125 -9.125 20.3203125 C-7.475 20.3203125 -5.825 20.3203125 -4.125 20.3203125 C-3.795 21.6403125 -3.465 22.9603125 -3.125 24.3203125 C-2.465 24.3203125 -1.805 24.3203125 -1.125 24.3203125 C-1.41239479 19.57829846 -3.66755099 17.21288342 -6.75 13.87109375 C-8.73558224 11.63167287 -9.11172389 10.47298778 -9.375 7.4453125 C-9.125 4.3203125 -9.125 4.3203125 -8.125 1.9453125 C-5.41453649 -0.2569391 -3.41604139 -0.18838464 0 0 Z " fill="#2A7F0C" transform="translate(209.125,169.6796875)"/>
<path d="M0 0 C0 1.65 0 3.3 0 5 C0.66 5 1.32 5 2 5 C2.33 3.68 2.66 2.36 3 1 C4.00021907 4.0006572 4.00900213 5.09797962 3.58227539 8.11303711 C2.99049217 12.81496987 2.78443159 17.45646362 2.68359375 22.19140625 C2.66281265 23.02212143 2.64203156 23.85283661 2.62062073 24.70872498 C2.55595518 27.32657715 2.49663208 29.9445176 2.4375 32.5625 C2.39423555 34.35222217 2.35061894 36.14193586 2.30664062 37.93164062 C2.20036076 42.28767315 2.09886742 46.64379319 2 51 C0.35 51 -1.3 51 -3 51 C-3 34.5 -3 18 -3 1 C-1 0 -1 0 0 0 Z " fill="#228A03" transform="translate(180,163)"/>
<path d="M0 0 C0.68126953 0.22220215 1.36253906 0.4444043 2.06445312 0.67333984 C6.88944246 1.97291002 11.96723594 1.79481299 16.9375 1.9375 C18.04609375 1.97617188 19.1546875 2.01484375 20.296875 2.0546875 C23.01025797 2.14825243 25.72364661 2.23399483 28.4375 2.3125 C28.4375 2.6425 28.4375 2.9725 28.4375 3.3125 C27.03673218 3.35008423 27.03673218 3.35008423 25.60766602 3.38842773 C22.15424811 3.48336928 18.7010104 3.58261258 15.24780273 3.68481445 C13.75110731 3.72821813 12.25436061 3.76988913 10.75756836 3.80981445 C8.61035688 3.86738616 6.46340479 3.93111716 4.31640625 3.99609375 C3.0229126 4.03275146 1.72941895 4.06940918 0.39672852 4.10717773 C-2.44805008 3.9792278 -2.44805008 3.9792278 -3.5625 5.3125 C2.7075 5.6425 8.9775 5.9725 15.4375 6.3125 C15.4375 6.6425 15.4375 6.9725 15.4375 7.3125 C9.4975 7.6425 3.5575 7.9725 -2.5625 8.3125 C-2.5625 9.6325 -2.5625 10.9525 -2.5625 12.3125 C-3.2225 12.3125 -3.8825 12.3125 -4.5625 12.3125 C-4.8925 10.9925 -5.2225 9.6725 -5.5625 8.3125 C-6.2225 8.3125 -6.8825 8.3125 -7.5625 8.3125 C-7.5625 24.8125 -7.5625 41.3125 -7.5625 58.3125 C-5.9125 58.3125 -4.2625 58.3125 -2.5625 58.3125 C-2.57035522 56.6564978 -2.57035522 56.6564978 -2.57836914 54.96704102 C-2.59659457 50.83521346 -2.60799559 46.7033894 -2.61743164 42.5715332 C-2.62243201 40.78995158 -2.62923446 39.00837401 -2.63793945 37.22680664 C-2.65019464 34.6524963 -2.65577142 32.07824064 -2.66015625 29.50390625 C-2.66531754 28.71915421 -2.67047882 27.93440216 -2.67579651 27.12586975 C-2.67632743 21.78293137 -2.22958655 16.61456849 -1.5625 11.3125 C-1.2325 11.3125 -0.9025 11.3125 -0.5625 11.3125 C-0.8925 27.1525 -1.2225 42.9925 -1.5625 59.3125 C-5.5625 60.3125 -5.5625 60.3125 -8.5625 59.3125 C-8.57280746 58.73034225 -8.58311493 58.14818451 -8.59373474 57.54838562 C-8.70178566 51.49771866 -8.81638492 45.44720105 -8.93481445 39.39672852 C-8.9781678 37.13764567 -9.01984258 34.87852997 -9.05981445 32.61938477 C-9.11750713 29.37506196 -9.18120469 26.1309046 -9.24609375 22.88671875 C-9.26280624 21.87413498 -9.27951874 20.86155121 -9.29673767 19.81828308 C-9.31668289 18.87753433 -9.33662811 17.93678558 -9.35717773 16.9675293 C-9.37272202 16.13924118 -9.3882663 15.31095306 -9.40428162 14.45756531 C-9.48790723 12.12696753 -9.48790723 12.12696753 -10.5625 9.3125 C-11.5525 8.9825 -12.5425 8.6525 -13.5625 8.3125 C-12.09355724 6.74121286 -10.58576837 5.20618021 -9.0625 3.6875 C-8.2271875 2.82898438 -7.391875 1.97046875 -6.53125 1.0859375 C-3.5625 -0.6875 -3.5625 -0.6875 0 0 Z " fill="#2C6B18" transform="translate(184.5625,155.6875)"/>
<path d="M0 0 C0.99 0 1.98 0 3 0 C4.48679725 2.97359449 4.11112605 5.66299179 4.09765625 8.9765625 C4.0962413 9.66181 4.09482635 10.3470575 4.09336853 11.05307007 C4.08776675 13.24375761 4.07521406 15.4343433 4.0625 17.625 C4.05748522 19.10937352 4.05292228 20.59374865 4.04882812 22.078125 C4.03779677 25.71878315 4.02053099 29.35938164 4 33 C0.535 33.495 0.535 33.495 -3 34 C-3.02929981 30.16668301 -3.04689897 26.33339529 -3.0625 22.5 C-3.07087891 21.42234375 -3.07925781 20.3446875 -3.08789062 19.234375 C-3.10567059 13.40254744 -3.06699156 7.74430675 -2 2 C-1.34 1.34 -0.68 0.68 0 0 Z " fill="#248806" transform="translate(319,302)"/>
<path d="M0 0 C1.65 0 3.3 0 5 0 C5.79967527 2.81990753 6.12822838 5.32986872 6.1328125 8.2578125 C6.13410156 9.04800781 6.13539063 9.83820313 6.13671875 10.65234375 C6.13285156 11.46832031 6.12898438 12.28429687 6.125 13.125 C6.12886719 13.94871094 6.13273437 14.77242187 6.13671875 15.62109375 C6.12669335 21.7466133 6.12669335 21.7466133 5 24 C7.31 24 9.62 24 12 24 C12.33 25.65 12.66 27.3 13 29 C10.35541621 30.32229189 8.32238699 30.09677194 5.375 30.0625 C4.37210937 30.05347656 3.36921875 30.04445312 2.3359375 30.03515625 C1.56507813 30.02355469 0.79421875 30.01195312 0 30 C-0.77956232 25.9525754 -1.07796501 22.27794351 -0.87890625 18.1640625 C-0.83056641 17.10058594 -0.78222656 16.03710938 -0.73242188 14.94140625 C-0.67634766 13.84699219 -0.62027344 12.75257813 -0.5625 11.625 C-0.51029297 10.50738281 -0.45808594 9.38976562 -0.40429688 8.23828125 C-0.27519184 5.49186508 -0.14025096 2.74586578 0 0 Z " fill="#1C6F05" transform="translate(288,170)"/>
<path d="M0 0 C2.73332093 0.48235075 5.24862665 1.08647883 7.875 2 C11.24509256 3.07842962 14.49246882 3.57909626 18 4 C18.33 4.99 18.66 5.98 19 7 C20.84971696 8.05021103 20.84971696 8.05021103 23 9 C24.35113205 9.97581759 25.68946944 10.97029741 27 12 C26.67 12.99 26.34 13.98 26 15 C15.41778397 14.74246819 5.6652647 11.45234068 -2 4 C-1.34 2.68 -0.68 1.36 0 0 Z " fill="#F6F6F5" transform="translate(224,279)"/>
<path d="M0 0 C2 2.5 2 2.5 4 5 C4.680625 5.680625 5.36125 6.36125 6.0625 7.0625 C8.58075219 10.88049526 9.32672768 14.62443823 10.2890625 19.0625 C10.9645385 21.85347774 11.86706831 24.36617591 13 27 C11.68 27.99 10.36 28.98 9 30 C2.31357535 23.06840645 -2.20687917 15.06778369 -2.0625 5.25 C-2.05347656 4.45078125 -2.04445312 3.6515625 -2.03515625 2.828125 C-2.02355469 2.22484375 -2.01195312 1.6215625 -2 1 C-1.34 0.67 -0.68 0.34 0 0 Z " fill="#F6F6F6" transform="translate(211,251)"/>
<path d="M0 0 C0.33 1.65 0.66 3.3 1 5 C-0.6396875 6.0828125 -0.6396875 6.0828125 -2.3125 7.1875 C-4.85100456 8.96546054 -5.89835841 9.79671682 -7.3125 12.625 C-9.73488786 16.03428662 -12.57186914 16.35175667 -16.52734375 17.32421875 C-18.89390253 17.97100338 -20.85238348 18.8290258 -23 20 C-23.671875 18.23828125 -23.671875 18.23828125 -24 16 C-19.76823543 8.34176933 -8.9026966 0 0 0 Z " fill="#F4F4F4" transform="translate(240,212)"/>
<path d="M0 0 C1.98 0 3.96 0 6 0 C6.33 9.24 6.66 18.48 7 28 C3 30 3 30 0 30 C-0.97788444 19.83698671 -1.49959674 10.12227797 0 0 Z " fill="#2D7516" transform="translate(257,170)"/>
<path d="M0 0 C0.99 0.33 1.98 0.66 3 1 C2.4740625 1.928125 2.4740625 1.928125 1.9375 2.875 C1.628125 3.57625 1.31875 4.2775 1 5 C1.33 5.66 1.66 6.32 2 7 C-1.13725703 8.19066482 -4.28589877 9.34789736 -7.4375 10.5 C-8.31599609 10.83386719 -9.19449219 11.16773438 -10.09960938 11.51171875 C-16.00481378 13.64718012 -20.72331752 14.35757296 -27 14 C-26.84375 11.63671875 -26.84375 11.63671875 -26 9 C-23.53125 7.70703125 -23.53125 7.70703125 -20.5 6.8125 C-18.65253826 6.25302383 -16.81485377 5.65759733 -15 5 C-14.67 4.34 -14.34 3.68 -14 3 C-11.56640625 2.55078125 -11.56640625 2.55078125 -8.5625 2.3125 C-7.57378906 2.22613281 -6.58507812 2.13976562 -5.56640625 2.05078125 C-3 2 -3 2 -1 3 C-0.67 2.01 -0.34 1.02 0 0 Z " fill="#238907" transform="translate(289,341)"/>
<path d="M0 0 C2.35546875 0.625 2.35546875 0.625 5 2 C9.19801926 10.27575144 10.49844681 20.04215413 8 29 C6.35 29 4.7 29 3 29 C2.95101563 28.39671875 2.90203125 27.7934375 2.8515625 27.171875 C2.77679688 26.37265625 2.70203125 25.5734375 2.625 24.75 C2.55539062 23.96109375 2.48578125 23.1721875 2.4140625 22.359375 C2.14073711 20.00763638 2.14073711 20.00763638 0.96875 18.21875 C-0.51473508 14.82109063 -0.2085433 11.38734661 -0.125 7.75 C-0.11597656 7.00492188 -0.10695313 6.25984375 -0.09765625 5.4921875 C-0.07418358 3.66131941 -0.03831525 1.83061762 0 0 Z " fill="#E8E8E8" transform="translate(283,232)"/>
<path d="M0 0 C19.53191489 -0.76595745 19.53191489 -0.76595745 28 4 C28 5.32 28 6.64 28 8 C12.5908808 9.64601917 12.5908808 9.64601917 6 6 C4.01178687 5.60235737 2.01267638 5.24544834 0 5 C0 3.35 0 1.7 0 0 Z " fill="#F7F7F7" transform="translate(242,211)"/>
<path d="M0 0 C0 0.66 0 1.32 0 2 C-1.21623047 2.22042969 -1.21623047 2.22042969 -2.45703125 2.4453125 C-14.62214836 4.90949222 -24.51558868 9.77009647 -33 19 C-34.31084735 20.97791828 -34.31084735 20.97791828 -35.3125 22.9375 C-37 26 -37 26 -39.25 26.9375 C-39.8275 26.958125 -40.405 26.97875 -41 27 C-41.33 26.34 -41.66 25.68 -42 25 C-33.60911607 12.65915209 -24.17609494 3.2740953 -9.3125 -0.72265625 C-6.09463598 -1.10858251 -3.17457908 -0.56021984 0 0 Z " fill="#F5F4F4" transform="translate(248,205)"/>
<path d="M0 0 C1.32 0.33 2.64 0.66 4 1 C1.17853264 11.6918763 -4.52960723 18.12049318 -13 25 C-13.66 24.67 -14.32 24.34 -15 24 C-14.70609375 23.278125 -14.4121875 22.55625 -14.109375 21.8125 C-13.41641743 20.05570617 -12.75454524 18.2859498 -12.140625 16.5 C-10.02279708 10.55521986 -8.09166901 7.68333503 -3 4 C-1.1873495 1.83779383 -1.1873495 1.83779383 0 0 Z " fill="#F4F4F4" transform="translate(286,262)"/>
<path d="M0 0 C5.56818182 0.56818182 5.56818182 0.56818182 7 2 C7.01696174 4.66832963 6.97101299 7.30742795 6.87890625 9.97265625 C6.85529526 10.77029892 6.83168427 11.56794159 6.80735779 12.38975525 C6.7305374 14.94750973 6.64659285 17.50497527 6.5625 20.0625 C6.50929767 21.79230338 6.45655717 23.52212103 6.40429688 25.25195312 C6.27489758 29.50148644 6.13910688 33.75077382 6 38 C4.42274653 38.70133599 2.83788667 39.385583 1.25 40.0625 C0.36828125 40.44535156 -0.5134375 40.82820313 -1.421875 41.22265625 C-4.15256309 42.04600008 -5.36901347 41.9773992 -8 41 C-7.01 41 -6.02 41 -5 41 C-5 39.35 -5 37.7 -5 36 C-5.33 36.66 -5.66 37.32 -6 38 C-8.97 37.67 -11.94 37.34 -15 37 C-12.14415227 35.09610151 -10.0688238 34.30537823 -6.8125 33.375 C-5.91144531 33.11460937 -5.01039063 32.85421875 -4.08203125 32.5859375 C-3.39496094 32.39257812 -2.70789063 32.19921875 -2 32 C-2 33.98 -2 35.96 -2 38 C1.465 37.505 1.465 37.505 5 37 C4.67 26.11 4.34 15.22 4 4 C2.02 4.99 2.02 4.99 0 6 C-0.69632215 7.95365445 -0.69632215 7.95365445 -0.75 10.125 C-0.8325 11.40375 -0.915 12.6825 -1 14 C-1.33 14 -1.66 14 -2 14 C-2.05389087 12.04196493 -2.09274217 10.08351091 -2.125 8.125 C-2.14820313 7.03445313 -2.17140625 5.94390625 -2.1953125 4.8203125 C-2 2 -2 2 0 0 Z " fill="#2F7C17" transform="translate(318,298)"/>
<path d="M0 0 C2.97 0.495 2.97 0.495 6 1 C6.18451025 13.66970387 6.18451025 13.66970387 5 19 C4.34 19 3.68 19 3 19 C3.33 21.97 3.66 24.94 4 28 C2.68 27.67 1.36 27.34 0 27 C-0.83088343 23.44986171 -1.07031086 20.33590633 -0.87890625 16.69921875 C-0.83056641 15.72275391 -0.78222656 14.74628906 -0.73242188 13.74023438 C-0.67634766 12.73283203 -0.62027344 11.72542969 -0.5625 10.6875 C-0.51029297 9.66076172 -0.45808594 8.63402344 -0.40429688 7.57617188 C-0.27507334 5.05043913 -0.14012709 2.52514739 0 0 Z " fill="#1F7D04" transform="translate(178,303)"/>
<path d="M0 0 C3.63 1.32 7.26 2.64 11 4 C11 4.66 11 5.32 11 6 C8 7 8 7 5 6 C7.29318746 9.43978118 8.15822834 9.80478215 12 11 C14.32597511 11.3813074 16.65912158 11.72460254 19 12 C19.33 12.99 19.66 13.98 20 15 C25.445 15.495 25.445 15.495 31 16 C25.7495766 18.6252117 23.42103913 17.64636749 18 16 C13.7732384 14.55664792 9.60425716 12.98242892 5.4375 11.375 C4.33341797 10.95476562 3.22933594 10.53453125 2.09179688 10.1015625 C-0.60762781 9.07321024 -3.30476001 8.0392595 -6 7 C-5.34 6.34 -4.68 5.68 -4 5 C-3.01 5 -2.02 5 -1 5 C-1 5.66 -1 6.32 -1 7 C0.32 7 1.64 7 3 7 C2.65213292 5.02463255 2.65213292 5.02463255 2 3 C1.34 2.67 0.68 2.34 0 2 C0 1.34 0 0.68 0 0 Z " fill="#2D7517" transform="translate(224,344)"/>
<path d="M0 0 C2.29013653 3.4352048 2.17842973 4.985331 2 9 C0.35 9.33 -1.3 9.66 -3 10 C-3.33 8.35 -3.66 6.7 -4 5 C-4.99 4.67 -5.98 4.34 -7 4 C-7 7.3 -7 10.6 -7 14 C-9 12 -9 12 -9.125 8.375 C-9.08375 7.26125 -9.0425 6.1475 -9 5 C-9.99 5 -10.98 5 -12 5 C-11.8125 2.625 -11.8125 2.625 -11 0 C-6.95427836 -2.65861708 -4.25096025 -1.98378145 0 0 Z " fill="#327B1E" transform="translate(246,303)"/>
<path d="M0 0 C-1.98 0.99 -1.98 0.99 -4 2 C-3.01 2.66 -2.02 3.32 -1 4 C-0.65942383 6.06298828 -0.65942383 6.06298828 -0.70703125 8.5703125 C-0.71669922 9.46621094 -0.72636719 10.36210937 -0.73632812 11.28515625 C-0.76146484 12.22230469 -0.78660156 13.15945312 -0.8125 14.125 C-0.82603516 15.06988281 -0.83957031 16.01476562 -0.85351562 16.98828125 C-0.88893694 19.32608779 -0.93832729 21.66276237 -1 24 C-1.33 24 -1.66 24 -2 24 C-2.33 17.73 -2.66 11.46 -3 5 C-4.32 5.33 -5.64 5.66 -7 6 C-7.33 5.67 -7.66 5.34 -8 5 C-9.2879632 8.8638896 -9.18415915 12.53677722 -9.1875 16.5625 C-9.19974609 17.34302734 -9.21199219 18.12355469 -9.22460938 18.92773438 C-9.22985217 20.95320035 -9.12234328 22.97822552 -9 25 C-6.23776722 27.76223278 -3.79293383 27.57856291 0 28 C0.33 27.34 0.66 26.68 1 26 C1 26.99 1 27.98 1 29 C-2.79271987 29.89240467 -5.11558086 30.41221844 -8.70703125 28.73828125 C-12.35006663 24.38773985 -11.64821041 19.92465357 -11.5 14.4375 C-11.50257813 13.38369141 -11.50515625 12.32988281 -11.5078125 11.24414062 C-11.40932084 3.52731874 -11.40932084 3.52731874 -9.59838867 1.19433594 C-6.67133059 -0.99279834 -3.52812603 -0.17351439 0 0 Z " fill="#2E7D16" transform="translate(230,170)"/>
<path d="M0 0 C1.84434706 0.47176007 3.68725189 0.95004551 5.52148438 1.4597168 C10.43962289 2.53180511 15.4840981 2.48100282 20.5 2.625 C21.60859375 2.66367188 22.7171875 2.70234375 23.859375 2.7421875 C26.57275797 2.83575243 29.28614661 2.92149483 32 3 C32 3.33 32 3.66 32 4 C30.59923218 4.03758423 30.59923218 4.03758423 29.17016602 4.07592773 C25.71674811 4.17086928 22.2635104 4.27011258 18.81030273 4.37231445 C17.31360731 4.41571813 15.81686061 4.45738913 14.32006836 4.49731445 C12.17285688 4.55488616 10.02590479 4.61861716 7.87890625 4.68359375 C5.93866577 4.73858032 5.93866577 4.73858032 3.95922852 4.79467773 C1.11444992 4.6667278 1.11444992 4.6667278 0 6 C6.27 6.33 12.54 6.66 19 7 C19 7.33 19 7.66 19 8 C13.06 8.33 7.12 8.66 1 9 C1 10.32 1 11.64 1 13 C0.34 13 -0.32 13 -1 13 C-1.33 11.68 -1.66 10.36 -2 9 C-2.66 9 -3.32 9 -4 9 C-4.35423925 5.81184679 -4.20226035 4.32867308 -2.5 1.5625 C-1.2625 0.7890625 -1.2625 0.7890625 0 0 Z " fill="#2D8017" transform="translate(181,155)"/>
<path d="M0 0 C0.66 0 1.32 0 2 0 C2 2.64 2 5.28 2 8 C2.56525391 8.16363037 3.13050781 8.32726074 3.71289062 8.49584961 C11.04488506 10.65339593 18.27439472 13.07413144 25.5 15.5625 C27.26730469 16.16094727 27.26730469 16.16094727 29.0703125 16.77148438 C30.19179687 17.15755859 31.31328125 17.54363281 32.46875 17.94140625 C33.48388672 18.28888916 34.49902344 18.63637207 35.54492188 18.99438477 C38 20 38 20 40 22 C33.86601943 21.34744888 27.49189682 20.11876192 22.15234375 16.87890625 C19.06099987 15.61656075 16.54686924 16.04531308 13.25 16.375 C11.49429688 16.54128906 11.49429688 16.54128906 9.703125 16.7109375 C8.81109375 16.80632812 7.9190625 16.90171875 7 17 C7.33 16.38125 7.66 15.7625 8 15.125 C9.14193235 13.08981656 9.14193235 13.08981656 9 11 C8.071875 10.896875 7.14375 10.79375 6.1875 10.6875 C3 10 3 10 1.125 8.875 C-0.611916 5.98014 -0.18630572 3.29140103 0 0 Z " fill="#2D7E15" transform="translate(181,322)"/>
<path d="M0 0 C2.44989101 3.74235319 2.23086143 7.44225419 2.125 11.75 C2.11597656 12.44738281 2.10695312 13.14476562 2.09765625 13.86328125 C2.07419888 15.57566958 2.03833104 17.28788004 2 19 C5.96 18.505 5.96 18.505 10 18 C10 19.32 10 20.64 10 22 C7.1862662 23.44706309 5.4857476 24.05648228 2.3125 23.6875 C-0.84067499 21.38653447 -1.08225182 19.4132893 -1.72265625 15.65625 C-2.19619063 11.12099114 -2.52772952 6.540026 -2 2 C-1.34 1.34 -0.68 0.68 0 0 Z " fill="#268809" transform="translate(217,307)"/>
<path d="M0 0 C1.65 0 3.3 0 5 0 C6.95031692 4.07723734 7.21581971 7.31692422 7.125 11.8125 C7.10695313 12.97394531 7.08890625 14.13539063 7.0703125 15.33203125 C7.04710937 16.21246094 7.02390625 17.09289062 7 18 C6.731875 17.38125 6.46375 16.7625 6.1875 16.125 C5.04443152 13.7004767 5.04443152 13.7004767 2 12 C1.01 13.485 1.01 13.485 0 15 C-1.66342837 13.33657163 -1.36048097 11.2174291 -1.5625 8.9375 C-1.64628906 8.01839844 -1.73007812 7.09929687 -1.81640625 6.15234375 C-1.90728516 5.08693359 -1.90728516 5.08693359 -2 4 C-1.34 4 -0.68 4 0 4 C0 2.68 0 1.36 0 0 Z " fill="#28880B" transform="translate(272,171)"/>
<path d="M0 0 C2.31 0 4.62 0 7 0 C7 1.32 7 2.64 7 4 C5.35 3.67 3.7 3.34 2 3 C2.00523682 3.61407715 2.01047363 4.2281543 2.01586914 4.86083984 C2.03692129 7.69888241 2.04974863 10.53690846 2.0625 13.375 C2.07087891 14.34050781 2.07925781 15.30601562 2.08789062 16.30078125 C2.10902305 22.59824289 1.76107198 28.74839863 1 35 C2.65 35 4.3 35 6 35 C6.33 35.99 6.66 36.98 7 38 C4.69 37.34 2.38 36.68 0 36 C-0.16888647 31.99842475 -0.32929688 27.99660428 -0.48217773 23.99438477 C-0.53524006 22.63557001 -0.59053669 21.27684045 -0.64819336 19.91821289 C-0.73111238 17.95483463 -0.80508139 15.99108498 -0.87890625 14.02734375 C-0.9260376 12.84906006 -0.97316895 11.67077637 -1.02172852 10.45678711 C-0.99926408 6.88292221 -0.58407979 3.52217815 0 0 Z " fill="#277D0A" transform="translate(176,300)"/>
<path d="M0 0 C0.66 0 1.32 0 2 0 C2 1.98 2 3.96 2 6 C1.67 5.01 1.34 4.02 1 3 C-0.32 3.33 -1.64 3.66 -3 4 C-3 8.95 -3 13.9 -3 19 C-3.66 19 -4.32 19 -5 19 C-5.33 19.99 -5.66 20.98 -6 22 C-6.33 22 -6.66 22 -7 22 C-7.02895976 18.87501937 -7.04678483 15.7500731 -7.0625 12.625 C-7.07087891 11.73554688 -7.07925781 10.84609375 -7.08789062 9.9296875 C-7.09111328 9.07890625 -7.09433594 8.228125 -7.09765625 7.3515625 C-7.10289307 6.56604004 -7.10812988 5.78051758 -7.11352539 4.97119141 C-7 3 -7 3 -6 1 C-4.02 1 -2.04 1 0 1 C0 0.67 0 0.34 0 0 Z " fill="#288908" transform="translate(260,304)"/>
<path d="M0 0 C0.66 0 1.32 0 2 0 C2 7.59 2 15.18 2 23 C1.34 23 0.68 23 0 23 C-0.33 24.32 -0.66 25.64 -1 27 C-0.34 27.33 0.32 27.66 1 28 C0.01 28 -0.98 28 -2 28 C-4.07355865 6.44980119 -4.07355865 6.44980119 0 0 Z " fill="#1C6D06" transform="translate(259,172)"/>
<path d="M0 0 C0.680625 0.61875 1.36125 1.2375 2.0625 1.875 C4.92060699 4.21446934 4.92060699 4.21446934 8.625 4.9375 C12 6 12 6 13.9375 8.625 C14.288125 9.40875 14.63875 10.1925 15 11 C13.02 11 11.04 11 9 11 C8.67 10.34 8.34 9.68 8 9 C6.04722151 8.42145148 6.04722151 8.42145148 3.75 8.0625 C-0.01332834 7.30023094 -2.90846419 6.39344708 -6 4 C-6 3.34 -6 2.68 -6 2 C-4.02 2 -2.04 2 0 2 C0 1.34 0 0.68 0 0 Z " fill="#228A07" transform="translate(235,348)"/>
<path d="M0 0 C3.72498309 1.24166103 4.25929938 2.51422259 6.375 5.75 C8.38933959 8.74798737 10.28428943 11.48082355 12.9375 13.9375 C13.618125 14.618125 14.29875 15.29875 15 16 C15 16.99 15 17.98 15 19 C15.66 19.33 16.32 19.66 17 20 C12.71303541 20 11.15689204 17.94409128 8.07421875 15.140625 C3.72597041 10.65316721 0 6.38053571 0 0 Z " fill="#F3F3F3" transform="translate(207,271)"/>
<path d="M0 0 C0.33 0 0.66 0 1 0 C1.33 2.64 1.66 5.28 2 8 C2.33 8 2.66 8 3 8 C3.33 6.35 3.66 4.7 4 3 C7.75 1.875 7.75 1.875 10 3 C10.48372093 10.25581395 10.48372093 10.25581395 8.375 13.5 C5.39901677 15.37956836 3.45669582 15.31424507 0 15 C1.32 14.34 2.64 13.68 4 13 C4 12.01 4 11.02 4 10 C2.68 10 1.36 10 0 10 C0 6.7 0 3.4 0 0 Z " fill="#20630B" transform="translate(243,185)"/>
<path d="M0 0 C0.33 0 0.66 0 1 0 C1.33 6.6 1.66 13.2 2 20 C4.64 20 7.28 20 10 20 C10.66 18.68 11.32 17.36 12 16 C10.68 15.67 9.36 15.34 8 15 C8.33 13.68 8.66 12.36 9 11 C10.65 11 12.3 11 14 11 C14.48192771 18.22891566 14.48192771 18.22891566 12.4375 21.5 C9.08965651 23.56021138 6.85985753 23.49125459 3 23 C1.3034668 21.7644043 1.3034668 21.7644043 0 20 C-0.34057617 17.82348633 -0.34057617 17.82348633 -0.29296875 15.33203125 C-0.28330078 14.43935547 -0.27363281 13.54667969 -0.26367188 12.62695312 C-0.23853516 11.69818359 -0.21339844 10.76941406 -0.1875 9.8125 C-0.17396484 8.87212891 -0.16042969 7.93175781 -0.14648438 6.96289062 C-0.11113096 4.64134962 -0.06178674 2.32096347 0 0 Z " fill="#307B1D" transform="translate(234,309)"/>
<path d="M0 0 C2.45321644 2.83653151 3 4.25123496 3 8 C1.35 8.33 -0.3 8.66 -2 9 C-2.33 8.01 -2.66 7.02 -3 6 C-4.93330603 4.90833725 -4.93330603 4.90833725 -7 4 C-7.66 3.34 -8.32 2.68 -9 2 C-8.67 5.63 -8.34 9.26 -8 13 C-8.66 13 -9.32 13 -10 13 C-11.59633757 9.80732485 -11.36932376 6.47306385 -11 3 C-8.93854021 -1.12291958 -4.07271869 -0.92484654 0 0 Z " fill="#317B1B" transform="translate(207,302)"/>
<path d="M0 0 C0.66 0.99 1.32 1.98 2 3 C-10.94594595 11.10810811 -10.94594595 11.10810811 -17 13 C-17.66 12.67 -18.32 12.34 -19 12 C-18.67 11.67 -18.34 11.34 -18 11 C-18.66 10.67 -19.32 10.34 -20 10 C-20 9.34 -20 8.68 -20 8 C-18.71416016 7.63648438 -18.71416016 7.63648438 -17.40234375 7.265625 C-11.10105309 5.4185725 -5.512818 3.58974195 0 0 Z " fill="#F7F5F7" transform="translate(277,288)"/>
<path d="M0 0 C1.32 0.66 2.64 1.32 4 2 C4.02698189 3.62490954 4.04638757 5.24994633 4.0625 6.875 C4.07410156 7.77992188 4.08570313 8.68484375 4.09765625 9.6171875 C4 12 4 12 3 14 C3.33 14.66 3.66 15.32 4 16 C4.07065617 18.04055005 4.08421976 20.08334257 4.0625 22.125 C4.05347656 23.22070312 4.04445313 24.31640625 4.03515625 25.4453125 C4.02355469 26.28835938 4.01195312 27.13140625 4 28 C3.01 28.33 2.02 28.66 1 29 C0.34 28.67 -0.32 28.34 -1 28 C-0.67 26.68 -0.34 25.36 0 24 C0 24.99 0 25.98 0 27 C0.99 27 1.98 27 3 27 C2.85904936 25.3745692 2.71207913 23.74965949 2.5625 22.125 C2.48128906 21.22007812 2.40007812 20.31515625 2.31640625 19.3828125 C2.13010715 16.98889139 2.13010715 16.98889139 1 15 C0.95977609 12.6670134 0.95679753 10.33293334 1 8 C0.34 8 -0.32 8 -1 8 C-1.33 7.01 -1.66 6.02 -2 5 C-2.99 4.67 -3.98 4.34 -5 4 C-5.33 4.66 -5.66 5.32 -6 6 C-6 4.68 -6 3.36 -6 2 C-5.21625 2.165 -4.4325 2.33 -3.625 2.5 C-1.11791961 3.0623707 -1.11791961 3.0623707 1 3 C0.67 2.01 0.34 1.02 0 0 Z " fill="#317918" transform="translate(300,303)"/>
<path d="M0 0 C3.3 0 6.6 0 10 0 C11.125 2.3125 11.125 2.3125 12 5 C11.01 6.485 11.01 6.485 10 8 C9.67 7.01 9.34 6.02 9 5 C6.49552484 3.78130071 6.49552484 3.78130071 4 3 C4.020625 4.2375 4.04125 5.475 4.0625 6.75 C4.06766681 9.6640825 3.93015558 12.20953327 3 15 C2.34 15 1.68 15 1 15 C0.67 10.05 0.34 5.1 0 0 Z " fill="#29880F" transform="translate(290,302)"/>
<path d="M0 0 C0.33 0.66 0.66 1.32 1 2 C4.07977798 2.8549965 7.18267965 3.47519922 10.3125 4.12109375 C11.199375 4.41113281 12.08625 4.70117188 13 5 C13.33 5.99 13.66 6.98 14 8 C12 10 12 10 8.875 10.125 C7.92625 10.08375 6.9775 10.0425 6 10 C5.67 9.34 5.34 8.68 5 8 C2.47266765 7.34444881 2.47266765 7.34444881 0 7 C0 4.69 0 2.38 0 0 Z " fill="#248A06" transform="translate(177,328)"/>
<path d="M0 0 C1.45792884 -0.05399736 2.91642712 -0.09279177 4.375 -0.125 C5.18710937 -0.14820313 5.99921875 -0.17140625 6.8359375 -0.1953125 C9 0 9 0 11 2 C11.56520003 4.65537372 11.73788198 7.29144713 12 10 C8.25 11.125 8.25 11.125 6 10 C6.33 7.36 6.66 4.72 7 2 C6.67 2.66 6.34 3.32 6 4 C3.69 3.67 1.38 3.34 -1 3 C-0.67 2.01 -0.34 1.02 0 0 Z " fill="#337E1C" transform="translate(255,302)"/>
<path d="M0 0 C12.220635 0.98700134 12.220635 0.98700134 17.98828125 3.046875 C17.98828125 4.366875 17.98828125 5.686875 17.98828125 7.046875 C17.44300781 6.91410156 16.89773438 6.78132812 16.3359375 6.64453125 C10.88925138 5.36898253 5.55707773 4.57723657 -0.01171875 4.046875 C-0.01171875 3.386875 -0.01171875 2.726875 -0.01171875 2.046875 C-1.66171875 2.046875 -3.31171875 2.046875 -5.01171875 2.046875 C-3.01171875 0.046875 -3.01171875 0.046875 0 0 Z " fill="#ECECEB" transform="translate(248.01171875,202.953125)"/>
<path d="M0 0 C1.33332095 2.6666419 0.67102033 4.16680303 0 7 C1.32 6.01 2.64 5.02 4 4 C4.3403125 5.299375 4.3403125 5.299375 4.6875 6.625 C6.24025095 10.61778814 8.14319895 12.84248305 11 16 C8.04590299 14.62845496 5.55991624 13.01136276 3 11 C3.28875 11.5775 3.5775 12.155 3.875 12.75 C4.91666667 14.83333333 5.95833333 16.91666667 7 19 C5.86800647 18.0919838 4.74467637 17.17316174 3.625 16.25 C2.99851563 15.73953125 2.37203125 15.2290625 1.7265625 14.703125 C-1.04924325 11.96499987 -1.93393217 9.80933091 -2.25 5.9375 C-2 3 -2 3 0 0 Z " fill="#2D7D13" transform="translate(202,171)"/>
<path d="M0 0 C2.31 0.33 4.62 0.66 7 1 C9.09230769 5.43076923 9.09230769 5.43076923 8.625 8.3125 C8.41875 8.869375 8.2125 9.42625 8 10 C6.35 10 4.7 10 3 10 C3 8.35 3 6.7 3 5 C2.01 5 1.02 5 0 5 C-0.33 5.66 -0.66 6.32 -1 7 C-0.7525 6.1028125 -0.7525 6.1028125 -0.5 5.1875 C0.1114124 2.88655664 0.1114124 2.88655664 0 0 Z " fill="#307C19" transform="translate(244,170)"/>
<path d="M0 0 C1.67542976 0.28604898 3.34385343 0.61781233 5 1 C5 1.99 5 2.98 5 4 C4.34 4 3.68 4 3 4 C3 4.66 3 5.32 3 6 C3.99 6 4.98 6 6 6 C6 6.99 6 7.98 6 9 C8.53673288 7.6446674 8.53673288 7.6446674 11 6 C11 5.34 11 4.68 11 4 C11.66 4 12.32 4 13 4 C13.33 2.68 13.66 1.36 14 0 C13.52 6.36 13.52 6.36 11.375 9 C7.95223815 10.44116288 5.55394628 9.85557966 2 9 C-0.57781906 6.42218094 -0.62129616 4.5598161 -1 1 C-0.67 0.67 -0.34 0.34 0 0 Z " fill="#31781B" transform="translate(196,322)"/>
<path d="M0 0 C0.92495854 2.77487561 1.09838693 4.28072415 1.02734375 7.125 C1.01509766 7.91390625 1.00285156 8.7028125 0.99023438 9.515625 C0.95507627 11.17196248 0.91601312 12.82822167 0.87304688 14.484375 C0.86208984 15.27328125 0.85113281 16.0621875 0.83984375 16.875 C0.82300537 17.59429687 0.80616699 18.31359375 0.78881836 19.0546875 C0.8839541 21.32606396 0.8839541 21.32606396 3 24 C3 24.66 3 25.32 3 26 C7.64586892 25.51515724 7.64586892 25.51515724 12 24 C12 24.99 12 25.98 12 27 C8.90826248 28.54586876 6.40570448 28.29359521 3 28 C0.79296875 26.67578125 0.79296875 26.67578125 -1 24 C-1.52327034 20.28208728 -1.4204256 16.62121763 -1.3125 12.875 C-1.30283203 11.86050781 -1.29316406 10.84601563 -1.28320312 9.80078125 C-1.16892385 2.3378477 -1.16892385 2.3378477 0 0 Z " fill="#266611" transform="translate(253,304)"/>
<path d="M0 0 C2.375 -0.125 2.375 -0.125 5 0 C7 2 7 2 7.22705078 3.97119141 C7.21134033 5.1494751 7.21134033 5.1494751 7.1953125 6.3515625 C7.18564453 7.62773437 7.18564453 7.62773437 7.17578125 8.9296875 C7.15902344 9.81914062 7.14226562 10.70859375 7.125 11.625 C7.11597656 12.5221875 7.10695312 13.419375 7.09765625 14.34375 C7.0740497 16.56276586 7.0411231 18.78125077 7 21 C4.15385976 18.15385976 4.54420924 15.19630858 4.375 11.375 C4.33632812 10.66859375 4.29765625 9.9621875 4.2578125 9.234375 C4.16352276 7.49001476 4.08067109 5.74504309 4 4 C2.35 3.67 0.7 3.34 -1 3 C-0.67 2.01 -0.34 1.02 0 0 Z " fill="#248707" transform="translate(220,303)"/>
<path d="M0 0 C-2.74564964 1.03411477 -5.4954861 2.05251157 -8.25 3.0625 C-9.02730469 3.35705078 -9.80460937 3.65160156 -10.60546875 3.95507812 C-11.73662109 4.3659668 -11.73662109 4.3659668 -12.890625 4.78515625 C-13.58188477 5.04176025 -14.27314453 5.29836426 -14.98535156 5.56274414 C-17.32031471 6.06952056 -18.75375603 5.74214139 -21 5 C-20.67 4.01 -20.34 3.02 -20 2 C-19.34 2 -18.68 2 -18 2 C-17.67 1.34 -17.34 0.68 -17 0 C-14.69 0.66 -12.38 1.32 -10 2 C-10 1.34 -10 0.68 -10 0 C-6.26432828 -0.76411467 -3.65188082 -1.07174763 0 0 Z " fill="#2A8211" transform="translate(288,349)"/>
<path d="M0 0 C0.33 0.66 0.66 1.32 1 2 C1.99 2 2.98 2 4 2 C4 3.98 4 5.96 4 8 C2.35 8.33 0.7 8.66 -1 9 C-1.0928125 7.824375 -1.0928125 7.824375 -1.1875 6.625 C-1.455625 5.75875 -1.72375 4.8925 -2 4 C-4.47636012 2.62533375 -4.47636012 2.62533375 -7 2 C-7 1.34 -7 0.68 -7 0 C-4.30234372 -1.34882814 -2.84835666 -0.80338265 0 0 Z " fill="#307718" transform="translate(244,304)"/>
<path d="M0 0 C0.33 0 0.66 0 1 0 C1.33 4.62 1.66 9.24 2 14 C2.99 14.33 3.98 14.66 5 15 C5 15.33 5 15.66 5 16 C2.625 16.1875 2.625 16.1875 0 16 C-2.07324138 12.89013793 -2.27392186 12.10891613 -2.25 8.5625 C-2.25515625 7.80066406 -2.2603125 7.03882813 -2.265625 6.25390625 C-1.9747292 3.78556982 -1.22975656 2.142314 0 0 Z " fill="#238B04" transform="translate(241,181)"/>
<path d="M0 0 C1.98 0 3.96 0 6 0 C6.66 1.32 7.32 2.64 8 4 C7 5 7 5 3.83984375 5.09765625 C1.90818359 5.08025391 1.90818359 5.08025391 -0.0625 5.0625 C-1.35285156 5.05347656 -2.64320313 5.04445313 -3.97265625 5.03515625 C-4.97167969 5.02355469 -5.97070312 5.01195312 -7 5 C-7 4.34 -7 3.68 -7 3 C-5.5459375 2.814375 -5.5459375 2.814375 -4.0625 2.625 C-2.5465625 2.315625 -2.5465625 2.315625 -1 2 C-0.67 1.34 -0.34 0.68 0 0 Z " fill="#357D1F" transform="translate(278,326)"/>
<path d="M0 0 C5.56818182 0.56818182 5.56818182 0.56818182 7 2 C7.04063832 3.66617115 7.042721 5.33388095 7 7 C6.01 7.495 6.01 7.495 5 8 C4.67 6.68 4.34 5.36 4 4 C1.92064793 4.4100567 1.92064793 4.4100567 0 6 C-0.68790422 8.69658452 -0.81946464 11.2017019 -1 14 C-1.33 14 -1.66 14 -2 14 C-2.05389087 12.04196493 -2.09274217 10.08351091 -2.125 8.125 C-2.14820313 7.03445313 -2.17140625 5.94390625 -2.1953125 4.8203125 C-2 2 -2 2 0 0 Z " fill="#256010" transform="translate(318,298)"/>
<path d="M0 0 C2.64 0 5.28 0 8 0 C8.50423557 2.74928442 9.00353426 5.49931143 9.5 8.25 C9.64308594 9.02730469 9.78617187 9.80460938 9.93359375 10.60546875 C10.13662109 11.73662109 10.13662109 11.73662109 10.34375 12.890625 C10.46943359 13.58188477 10.59511719 14.27314453 10.72460938 14.98535156 C11 17 11 17 11 21 C10.01 21 9.02 21 8 21 C7.93941406 19.97519531 7.87882812 18.95039063 7.81640625 17.89453125 C7.73194974 16.53384305 7.64730433 15.17316657 7.5625 13.8125 C7.52318359 13.13896484 7.48386719 12.46542969 7.44335938 11.77148438 C7.21072435 8.10300898 6.82792989 4.58305794 6 1 C4.35 1 2.7 1 1 1 C0.67 2.32 0.34 3.64 0 5 C0 3.35 0 1.7 0 0 Z " fill="#347920" transform="translate(271,170)"/>
<path d="M0 0 C1.84012191 0.46003048 3.67818234 0.93012889 5.50390625 1.44433594 C10.42484832 2.53980387 15.47702436 2.48079974 20.5 2.625 C21.60859375 2.66367188 22.7171875 2.70234375 23.859375 2.7421875 C26.57275797 2.83575243 29.28614661 2.92149483 32 3 C32 3.33 32 3.66 32 4 C27.64007129 4.04945386 23.28029138 4.08574488 18.92016602 4.10986328 C17.43706417 4.11991821 15.95398212 4.13356404 14.47094727 4.15087891 C12.33865469 4.17515006 10.20662431 4.18648799 8.07421875 4.1953125 C6.14968872 4.21102295 6.14968872 4.21102295 4.1862793 4.22705078 C1 4 1 4 -2 2 C-1.34 1.34 -0.68 0.68 0 0 Z " fill="#236F0C" transform="translate(181,155)"/>
<path d="M0 0 C0 10.56 0 21.12 0 32 C-0.33 32 -0.66 32 -1 32 C-1.02505615 31.2886792 -1.0501123 30.5773584 -1.07592773 29.84448242 C-1.19188439 26.62530483 -1.31461245 23.40642015 -1.4375 20.1875 C-1.47681641 19.06794922 -1.51613281 17.94839844 -1.55664062 16.79492188 C-1.59853516 15.72177734 -1.64042969 14.64863281 -1.68359375 13.54296875 C-1.72025146 12.55321045 -1.75690918 11.56345215 -1.79467773 10.54370117 C-1.90790331 7.8781649 -1.90790331 7.8781649 -3 5 C-3.99 4.67 -4.98 4.34 -6 4 C-1.125 0 -1.125 0 0 0 Z " fill="#1C590E" transform="translate(177,160)"/>
<path d="M0 0 C1.485 0.99 1.485 0.99 3 2 C3.2487793 3.87939453 3.2487793 3.87939453 3.07421875 6.1328125 C3.01943359 6.93847656 2.96464844 7.74414062 2.90820312 8.57421875 C2.83537109 9.41597656 2.76253906 10.25773438 2.6875 11.125 C2.62626953 11.97449219 2.56503906 12.82398438 2.50195312 13.69921875 C2.34848609 15.80053665 2.17602278 17.90045124 2 20 C1.34 20 0.68 20 0 20 C0 13.33333333 0 6.66666667 0 0 Z " fill="#238707" transform="translate(290,172)"/>
<path d="M0 0 C1.65 0 3.3 0 5 0 C5 1.32 5 2.64 5 4 C4.34 4 3.68 4 3 4 C3.33 4.99 3.66 5.98 4 7 C6.64 7.33 9.28 7.66 12 8 C11.34 8.66 10.68 9.32 10 10 C3.85994587 9.7767253 3.85994587 9.7767253 1.0625 7.25 C-0.16717908 4.64597372 -0.23723981 2.84687774 0 0 Z " fill="#367B1C" transform="translate(200,190)"/>
<path d="M0 0 C2.97 0 5.94 0 9 0 C9 0.66 9 1.32 9 2 C7.02 2.66 5.04 3.32 3 4 C3 6.64 3 9.28 3 12 C2.34 12 1.68 12 1 12 C-0.26237731 9.47524538 -0.09856404 7.68799534 -0.0625 4.875 C-0.05347656 3.96492188 -0.04445313 3.05484375 -0.03515625 2.1171875 C-0.02355469 1.41851562 -0.01195312 0.71984375 0 0 Z " fill="#258808" transform="translate(273,303)"/>
<path d="M0 0 C0.99 0.33 1.98 0.66 3 1 C2.67 2.65 2.34 4.3 2 6 C-3.75 7.125 -3.75 7.125 -6 6 C-6 5.34 -6 4.68 -6 4 C-6.99 3.67 -7.98 3.34 -9 3 C-8 2 -8 2 -4.5625 1.875 C-1 2 -1 2 1 3 C0.67 2.01 0.34 1.02 0 0 Z " fill="#238B04" transform="translate(311,333)"/>
<path d="M0 0 C0.99 0.33 1.98 0.66 3 1 C3 1.66 3 2.32 3 3 C3.66 3 4.32 3 5 3 C5 6.63 5 10.26 5 14 C4.34 12.68 3.68 11.36 3 10 C2.195625 8.7934375 2.195625 8.7934375 1.375 7.5625 C-0.12991342 4.75788862 -0.2682825 3.12996247 0 0 Z " fill="#228907" transform="translate(274,175)"/>
<path d="M0 0 C1.32 0 2.64 0 4 0 C5.8587516 3.1241325 6.20151847 5.09317534 5.75 8.6875 C5.61851562 9.86892578 5.61851562 9.86892578 5.484375 11.07421875 C5.24460938 12.02748047 5.24460938 12.02748047 5 13 C4.01 13.495 4.01 13.495 3 14 C2.96261719 13.22914063 2.92523438 12.45828125 2.88671875 11.6640625 C2.82097656 10.66117188 2.75523437 9.65828125 2.6875 8.625 C2.62949219 7.62726563 2.57148438 6.62953125 2.51171875 5.6015625 C2.34285156 4.74304688 2.17398438 3.88453125 2 3 C1.01 2.34 0.02 1.68 -1 1 C-0.67 0.67 -0.34 0.34 0 0 Z " fill="#208D02" transform="translate(226,171)"/>
<path d="M0 0 C0.99 0.33 1.98 0.66 3 1 C3.73046875 2.84765625 3.73046875 2.84765625 4.1875 5.0625 C4.34605469 5.79597656 4.50460938 6.52945312 4.66796875 7.28515625 C4.83232422 8.13400391 4.83232422 8.13400391 5 9 C4.34 9 3.68 9 3 9 C2.67 9.99 2.34 10.98 2 12 C1.4654744 10.75579353 0.94791389 9.50429064 0.4375 8.25 C0.14746094 7.55390625 -0.14257812 6.8578125 -0.44140625 6.140625 C-1.07831803 3.69987216 -0.80248831 2.3596345 0 0 Z " fill="#E5E5E3" transform="translate(204,262)"/>
<path d="M0 0 C1.65 0 3.3 0 5 0 C5 2.64 5 5.28 5 8 C4.01 8.495 4.01 8.495 3 9 C3 7.68 3 6.36 3 5 C1.68 4.67 0.36 4.34 -1 4 C-0.67 2.68 -0.34 1.36 0 0 Z " fill="#2C7A12" transform="translate(243,320)"/>
<path d="M0 0 C1.65 0 3.3 0 5 0 C4.67 1.32 4.34 2.64 4 4 C3.34 3.67 2.68 3.34 2 3 C1.67 9.27 1.34 15.54 1 22 C0.67 22 0.34 22 0 22 C0 14.74 0 7.48 0 0 Z " fill="#317517" transform="translate(288,170)"/>
<path d="M0 0 C0.33 0 0.66 0 1 0 C1 3.3 1 6.6 1 10 C0.01 10 -0.98 10 -2 10 C-2.33 7.36 -2.66 4.72 -3 2 C-2.01 2 -1.02 2 0 2 C0 1.34 0 0.68 0 0 Z " fill="#29870B" transform="translate(302,320)"/>
<path d="M0 0 C0.66 0 1.32 0 2 0 C2 1.98 2 3.96 2 6 C1.67 5.01 1.34 4.02 1 3 C-0.98491642 3.26676204 -0.98491642 3.26676204 -3 4 C-3.33 4.99 -3.66 5.98 -4 7 C-4.66 6.34 -5.32 5.68 -6 5 C-6 3.68 -6 2.36 -6 1 C-4.02 1 -2.04 1 0 1 C0 0.67 0 0.34 0 0 Z " fill="#1F8306" transform="translate(260,304)"/>
<path d="M0 0 C10.25835866 0.8662614 10.25835866 0.8662614 15 3 C15.33 3.99 15.66 4.98 16 6 C10.63904723 4.41078475 5.29156027 2.81027062 0 1 C0 0.67 0 0.34 0 0 Z " fill="#378219" transform="translate(184,338)"/>
<path d="M0 0 C-1.375 2 -1.375 2 -4 4 C-7.3580469 4.35791096 -10.63536357 4.23115823 -14 4 C-11.58592302 2.39061535 -9.65955563 1.34509262 -7 0.3125 C-5.9790625 -0.09548828 -5.9790625 -0.09548828 -4.9375 -0.51171875 C-3 -1 -3 -1 0 0 Z " fill="#337E1D" transform="translate(292,340)"/>
<path d="M0 0 C1.32 0.33 2.64 0.66 4 1 C3.125 4.875 3.125 4.875 2 6 C0.33382885 6.04063832 -1.33388095 6.042721 -3 6 C-3.33 5.34 -3.66 4.68 -4 4 C-3.01 4 -2.02 4 -1 4 C-0.67 2.68 -0.34 1.36 0 0 Z " fill="#258B03" transform="translate(242,324)"/>
<path d="M0 0 C0.33 0 0.66 0 1 0 C1 4.95 1 9.9 1 15 C2.65 15 4.3 15 6 15 C6.33 15.99 6.66 16.98 7 18 C4.69 17.34 2.38 16.68 0 16 C0 10.72 0 5.44 0 0 Z " fill="#2E7419" transform="translate(176,320)"/>
<path d="M0 0 C0 0.66 0 1.32 0 2 C-3.3 2.33 -6.6 2.66 -10 3 C-10 2.01 -10 1.02 -10 0 C-6.30581799 -1.231394 -3.7943739 -0.64432764 0 0 Z " fill="#F9FCFB" transform="translate(248,205)"/>
<path d="M0 0 C2.71546221 0.58672853 5.37871454 1.22931067 8.0625 1.9375 C9.20041992 2.23043945 9.20041992 2.23043945 10.36132812 2.52929688 C12.24223908 3.01431165 14.12129838 3.50649664 16 4 C12.82521643 5.9265164 11.09775396 6.1811358 7.5 5.3125 C4.08698794 4.45221854 1.59265258 3.47992855 -1 1 C-0.67 0.67 -0.34 0.34 0 0 Z " fill="#2F711C" transform="translate(237,349)"/>
<path d="M0 0 C2.64 0 5.28 0 8 0 C8 0.99 8 1.98 8 3 C5.69 3.33 3.38 3.66 1 4 C0.67 2.68 0.34 1.36 0 0 Z " fill="#218B02" transform="translate(203,194)"/>
<path d="M0 0 C0.99 0 1.98 0 3 0 C2.75 2.875 2.75 2.875 2 6 C-0.0625 7.375 -0.0625 7.375 -2 8 C-1.125 2.25 -1.125 2.25 0 0 Z " fill="#1E8E01" transform="translate(203,171)"/>
<path d="M0 0 C0 0.99 0 1.98 0 3 C-1.98 3.66 -3.96 4.32 -6 5 C-5.67 4.34 -5.34 3.68 -5 3 C-5.66 2.67 -6.32 2.34 -7 2 C-7 1.34 -7 0.68 -7 0 C-3.98968256 -0.93423645 -3.13349732 -1.04449911 0 0 Z " fill="#BCC3BF" transform="translate(264,296)"/>
<path d="M0 0 C1.32 0.33 2.64 0.66 4 1 C4 2.32 4 3.64 4 5 C1.03 5 -1.94 5 -5 5 C-3.68 4.34 -2.36 3.68 -1 3 C-0.67 2.01 -0.34 1.02 0 0 Z " fill="#337615" transform="translate(297,194)"/>
<path d="M0 0 C-0.33 0.99 -0.66 1.98 -1 3 C-7.75 2.25 -7.75 2.25 -10 0 C-6.30581799 -1.231394 -3.7943739 -0.64432764 0 0 Z " fill="#1E8D02" transform="translate(211,342)"/>
<path d="M0 0 C0.99 0 1.98 0 3 0 C3 2.64 3 5.28 3 8 C2.01 8 1.02 8 0 8 C0 5.36 0 2.72 0 0 Z " fill="#258A07" transform="translate(291,322)"/>
<path d="M0 0 C0 3 0 3 -1.25 4.75 C-3 6 -3 6 -5.1875 5.6875 C-5.785625 5.460625 -6.38375 5.23375 -7 5 C-4.63707344 2.47411298 -3.33537489 1.11179163 0 0 Z " fill="#EBEBE7" transform="translate(270,292)"/>
<path d="M0 0 C1.32 0.33 2.64 0.66 4 1 C4 2.32 4 3.64 4 5 C2.02 5 0.04 5 -2 5 C-1.34 3.35 -0.68 1.7 0 0 Z " fill="#DBD8D9" transform="translate(246,289)"/>
<path d="M0 0 C2.52259061 1.97420135 2.9929808 2.96745642 3.6875 6.1875 C3.790625 7.115625 3.89375 8.04375 4 9 C3.34 8.34 2.68 7.68 2 7 C1.01 7.495 1.01 7.495 0 8 C-0.38063221 5.6739143 -0.71269945 3.33944736 -1 1 C-0.67 0.67 -0.34 0.34 0 0 Z " fill="#E6E6E6" transform="translate(293,232)"/>
<path d="M0 0 C1.32 0.66 2.64 1.32 4 2 C4 3.32 4 4.64 4 6 C4.66 6.66 5.32 7.32 6 8 C4.35 8.33 2.7 8.66 1 9 C1 8.34 1 7.68 1 7 C0.34 6.67 -0.32 6.34 -1 6 C-0.34 5.01 0.32 4.02 1 3 C0.67 2.01 0.34 1.02 0 0 Z " fill="#187F03" transform="translate(271,187)"/>
<path d="M0 0 C0.33 0.99 0.66 1.98 1 3 C1.99 3.33 2.98 3.66 4 4 C4.33 4.66 4.66 5.32 5 6 C2.36 6 -0.28 6 -3 6 C-2.34 5.67 -1.68 5.34 -1 5 C-0.34444881 2.47266765 -0.34444881 2.47266765 0 0 Z " fill="#258608" transform="translate(274,323)"/>
<path d="M0 0 C1.65 0 3.3 0 5 0 C5 1.98 5 3.96 5 6 C4.67 6 4.34 6 4 6 C4 4.35 4 2.7 4 1 C3.01 1 2.02 1 1 1 C1.33 2.65 1.66 4.3 2 6 C0.68 6.33 -0.64 6.66 -2 7 C-1.34 4.69 -0.68 2.38 0 0 Z " fill="#357221" transform="translate(262,320)"/>
<path d="M0 0 C1.98 0 3.96 0 6 0 C6 2.31 6 4.62 6 7 C5.34 5.68 4.68 4.36 4 3 C3.34 3 2.68 3 2 3 C1.34 3.66 0.68 4.32 0 5 C0 3.35 0 1.7 0 0 Z " fill="#397025" transform="translate(257,170)"/>
<path d="M0 0 C2.4375 0.6875 2.4375 0.6875 5 2 C5.8125 4.625 5.8125 4.625 6 7 C5.01 7.33 4.02 7.66 3 8 C3 6.35 3 4.7 3 3 C2.34 3 1.68 3 1 3 C0.67 2.01 0.34 1.02 0 0 Z " fill="#248D07" transform="translate(202,317)"/>
<path d="M0 0 C3.125 0.625 3.125 0.625 6 2 C6.875 4.125 6.875 4.125 7 6 C6.01 5.67 5.02 5.34 4 5 C4 4.34 4 3.68 4 3 C1.69 2.67 -0.62 2.34 -3 2 C-2.01 1.34 -1.02 0.68 0 0 Z " fill="#478B34" transform="translate(240,301)"/>
<path d="M0 0 C1.65 0 3.3 0 5 0 C5 1.32 5 2.64 5 4 C4.34 4 3.68 4 3 4 C2.67 4.66 2.34 5.32 2 6 C1.34 5.67 0.68 5.34 0 5 C0 3.35 0 1.7 0 0 Z " fill="#27750F" transform="translate(200,190)"/>
<path d="M0 0 C2.97 0.495 2.97 0.495 6 1 C6 1.66 6 2.32 6 3 C4.02 3.99 4.02 3.99 2 5 C1.34 4.34 0.68 3.68 0 3 C0 2.01 0 1.02 0 0 Z " fill="#1E8D03" transform="translate(294,339)"/>
<path d="M0 0 C1.9375 0.8125 1.9375 0.8125 4 2 C4.33 2.99 4.66 3.98 5 5 C5.66 5 6.32 5 7 5 C7 6.65 7 8.3 7 10 C4.3513141 6.80331012 2.06007659 3.60513403 0 0 Z " fill="#1E730C" transform="translate(198,315)"/>
<path d="M0 0 C0.66 0.66 1.32 1.32 2 2 C-1.6441774 4.4294516 -3.71241272 4.16179575 -8 4 C-7.67 3.34 -7.34 2.68 -7 2 C-4.6859378 1.26924352 -2.35171131 0.59861742 0 0 Z " fill="#2C6E1D" transform="translate(245,328)"/>
<path d="M0 0 C2.64 0.33 5.28 0.66 8 1 C7.01 2.485 7.01 2.485 6 4 C3.69 3.67 1.38 3.34 -1 3 C-0.67 2.01 -0.34 1.02 0 0 Z " fill="#2C8B14" transform="translate(255,302)"/>
<path d="M0 0 C2.31 0 4.62 0 7 0 C7 1.32 7 2.64 7 4 C4.625 3.6875 4.625 3.6875 2 3 C1.34 2.01 0.68 1.02 0 0 Z " fill="#357E1C" transform="translate(176,300)"/>
<path d="M0 0 C1.32 0 2.64 0 4 0 C3.67 1.65 3.34 3.3 3 5 C1.68 5.33 0.36 5.66 -1 6 C-0.67 4.02 -0.34 2.04 0 0 Z " fill="#E1E1E1" transform="translate(293,263)"/>
<path d="M0 0 C1.32 0 2.64 0 4 0 C3.125 3.875 3.125 3.875 2 5 C0.00041636 5.04080783 -2.00045254 5.04254356 -4 5 C-2.68 4.34 -1.36 3.68 0 3 C0 2.01 0 1.02 0 0 Z " fill="#2A6D16" transform="translate(247,195)"/>
<path d="M0 0 C2.5 1.8125 2.5 1.8125 5 4 C5 4.99 5 5.98 5 7 C2.37812506 5.95125002 1.20628639 5.35068687 -0.25 2.875 C-0.4975 2.25625 -0.745 1.6375 -1 1 C-0.67 0.67 -0.34 0.34 0 0 Z " fill="#1D8E02" transform="translate(205,181)"/>
<path d="M0 0 C-1.26607607 0.53229326 -2.53810412 1.05044544 -3.8125 1.5625 C-4.52019531 1.85253906 -5.22789062 2.14257812 -5.95703125 2.44140625 C-8 3 -8 3 -11 2 C-10.67 1.34 -10.34 0.68 -10 0 C-6.2683559 -0.91217967 -3.66036382 -1.05602687 0 0 Z " fill="#367A1C" transform="translate(288,349)"/>
<path d="M0 0 C0.99 0 1.98 0 3 0 C3 1.32 3 2.64 3 4 C1.125 4.625 1.125 4.625 -1 5 C-1.66 4.34 -2.32 3.68 -3 3 C-2.01 2.67 -1.02 2.34 0 2 C0 1.34 0 0.68 0 0 Z " fill="#249512" transform="translate(300,340)"/>
<path d="M0 0 C2.31 0.33 4.62 0.66 7 1 C5.6875 2.5 5.6875 2.5 4 4 C3.01 4 2.02 4 1 4 C0.67 2.68 0.34 1.36 0 0 Z " fill="#1F9202" transform="translate(255,326)"/>
<path d="M0 0 C0 0.66 0 1.32 0 2 C-4.75 3.125 -4.75 3.125 -7 2 C-7 1.34 -7 0.68 -7 0 C-4.3333581 -1.33332095 -2.83319697 -0.67102033 0 0 Z " fill="#248707" transform="translate(244,304)"/>
<path d="M0 0 C0.78375 0.04125 1.5675 0.0825 2.375 0.125 C2.375 1.445 2.375 2.765 2.375 4.125 C1.715 4.125 1.055 4.125 0.375 4.125 C0.375 3.465 0.375 2.805 0.375 2.125 C-1.275 2.125 -2.925 2.125 -4.625 2.125 C-2.625 0.125 -2.625 0.125 0 0 Z " fill="#D5BBD3" transform="translate(247.625,202.875)"/>
<path d="M0 0 C1.4540625 0.0309375 1.4540625 0.0309375 2.9375 0.0625 C3.2675 0.7225 3.5975 1.3825 3.9375 2.0625 C1.0625 2.6875 1.0625 2.6875 -2.0625 3.0625 C-2.7225 2.4025 -3.3825 1.7425 -4.0625 1.0625 C-3.0625 0.0625 -3.0625 0.0625 0 0 Z " fill="#359119" transform="translate(281.0625,325.9375)"/>
<path d="M0 0 C1.32 0.33 2.64 0.66 4 1 C4 2.32 4 3.64 4 5 C2.68 5 1.36 5 0 5 C0 3.35 0 1.7 0 0 Z " fill="#367B21" transform="translate(268,194)"/>
<path d="M0 0 C0.99 0.33 1.98 0.66 3 1 C3 1.66 3 2.32 3 3 C3.66 3 4.32 3 5 3 C4.67 3.66 4.34 4.32 4 5 C3.34 4.67 2.68 4.34 2 4 C1.67 4.66 1.34 5.32 1 6 C0 5 0 5 -0.0625 2.4375 C-0.041875 1.633125 -0.02125 0.82875 0 0 Z " fill="#1B7D02" transform="translate(274,175)"/>
</svg>
