<svg xmlns="http://www.w3.org/2000/svg" fill="white" viewBox="0 0 148.154 207.954"><defs><style>.cls-1{isolation:isolate;}.cls-2,.cls-3{stroke:#1e1e1c;stroke-miterlimit:10;}.cls-3{fill:#fbfbfb;}.cls-4{mix-blend-mode:color;}</style></defs><g class="cls-1"><g id="Capa_1" data-name="Capa 1"><path class="cls-2" d="M75.021,144.387c-26.007.024-46.979-20.068-46.992-45.019-.014-24.741,21-45.065,46.769-44.933,26.731.136,46.939,20.395,46.965,44.969C121.789,124.413,100.677,144.361,75.021,144.387ZM58.314,99.247h-.155c0,2.806.013,5.613-.009,8.42a1.5,1.5,0,0,0,.864,1.54q7.493,4.1,14.927,8.29a1.607,1.607,0,0,0,1.7.049q8.1-3.974,15.823-8.568a1.5,1.5,0,0,0,.837-1.431q.022-8.273.108-16.547a1.3,1.3,0,0,0-.759-1.3q-7.893-4.321-15.767-8.672a1.9,1.9,0,0,0-2.008.025q-7.256,4.043-14.55,8.021A1.625,1.625,0,0,0,58.3,90.683C58.343,93.537,58.314,96.392,58.314,99.247ZM75.745,69.7l-.072-.009a9.047,9.047,0,0,1,.113-1.323c.36-1.55-.37-2.351-1.786-3.065a41.18,41.18,0,0,0-12.855-3.9,3.96,3.96,0,0,0-2.224.305,69.5,69.5,0,0,0-10.124,5.6,2.051,2.051,0,0,0-.854,1,34.8,34.8,0,0,0-2.982,14.08,1.557,1.557,0,0,0,1.131,1.659c3.563,1.393,7.1,2.837,10.638,4.3a2.18,2.18,0,0,0,2.146-.208c1.658-.982,3.372-1.878,5.065-2.807,2.85-1.565,5.626-3.283,8.585-4.629A3.238,3.238,0,0,0,74.72,77.76C75.007,75.069,75.4,72.388,75.745,69.7Zm0,59.654a70.009,70.009,0,0,0-1.164-9.3,1.951,1.951,0,0,0-.971-1.559c-5.082-2.79-10.138-5.622-15.2-8.45a1.461,1.461,0,0,0-1.437-.078q-5.544,2.4-11.124,4.729a1.208,1.208,0,0,0-.877,1.33,35.3,35.3,0,0,0,2.665,13.712,3.6,3.6,0,0,0,1.493,1.77c3.26,1.978,6.634,3.752,10.079,5.412a3.129,3.129,0,0,0,2.076.177,62.1,62.1,0,0,0,12.3-3.8C75.874,132.351,75.88,132.364,75.741,129.357ZM93.472,99.25h-.085c0,2.711.026,5.421-.016,8.131a1.94,1.94,0,0,0,.909,1.857q4.626,3.2,9.158,6.52a1.663,1.663,0,0,0,2.168.052,45.374,45.374,0,0,0,11.038-9.574,2.951,2.951,0,0,0,.717-1.882,84,84,0,0,0-.05-10.489,3.141,3.141,0,0,0-.7-1.744,34.834,34.834,0,0,0-10.632-9.074,1.9,1.9,0,0,0-2.33,0c-3.153,2.043-6.223,4.19-9.283,6.355a1.98,1.98,0,0,0-.905,1.868C93.5,93.928,93.472,96.59,93.472,99.25ZM32.136,99.7c-.308,0-.616,0-.924,0-2.4.045-2.147-.277-2,2.095a43.138,43.138,0,0,0,12.8,28.232,3.2,3.2,0,0,0,3.961.963c.69-.276.849-.461.553-1.138A33.548,33.548,0,0,1,43.938,116a2.778,2.778,0,0,0-.736-1.87,49,49,0,0,1-7.167-12C34.961,99.631,34.933,99.642,32.136,99.7Zm42.738,43.671a47.472,47.472,0,0,0,19.67-4.263c3.1-1.423,3.1-1.419,1.392-4.182a2.677,2.677,0,0,1-.219-.39c-.52-1.28-1.411-1.639-2.862-1.435a60.014,60.014,0,0,1-15.367.1,3.007,3.007,0,0,0-1.64.243,63.721,63.721,0,0,1-14.1,4.629c-.282.053-.619.01-.763.372-.374.939.8,3.091,1.856,3.367A48.982,48.982,0,0,0,74.874,143.372Zm-42.8-44.744c.72,0,1.44-.023,2.158.007a1.046,1.046,0,0,0,1.145-.763c1.871-4.906,4.86-9.206,7.958-13.445a2.242,2.242,0,0,0,.6-1.475,33.15,33.15,0,0,1,2.642-14.144c.118-.3.385-.59,0-.927a2.956,2.956,0,0,0-3.618.066A43.011,43.011,0,0,0,29.272,95.8C28.992,98.7,29,98.7,32.071,98.628ZM94.175,65.8c.33.107.67-.274.979-.79a23.524,23.524,0,0,1,1.693-2.639c.733-.92.52-1.323-.52-1.841A48.166,48.166,0,0,0,73.85,55.474a47.621,47.621,0,0,0-11.4,1.62c-1.582.413-1,1.768-1.242,2.7s.813.675,1.286.748a38.383,38.383,0,0,1,13.136,4.473,2.553,2.553,0,0,0,1.586.435A62.836,62.836,0,0,1,94.175,65.8Zm4.658,71.069c.246-.146.554-.323.855-.51a44.9,44.9,0,0,0,13.886-13.43,43.647,43.647,0,0,0,5.865-13.265c.391-1.507-.943-1.868-1.68-2.49-.539-.455-.951.5-1.294.889a42.936,42.936,0,0,1-10.547,8.776,2.949,2.949,0,0,0-1.383,1.32,49.166,49.166,0,0,1-8.3,13.58c-.354.4-.562.769-.193,1.314.754,1.114,1.437,2.273,2.147,3.414C98.321,136.683,98.443,136.9,98.833,136.871Zm20.749-47.063c-.073-.287-.126-.477-.171-.669a39.466,39.466,0,0,0-2.6-7.411A44.17,44.17,0,0,0,99.522,62.366c-.344-.213-.806-.793-1.168-.291-.931,1.293-1.747,2.666-2.553,4.037-.2.332.17.643.4.9,3.555,3.963,6.024,8.563,8.41,13.208a4.6,4.6,0,0,0,1.953,1.985,33.733,33.733,0,0,1,10.32,8.54c.24.309.47,1.024.955.734A3.853,3.853,0,0,0,119.582,89.808Z" transform="translate(-0.819 -0.983)"/><path class="cls-3" d="M58.314,99.247c0-2.855.029-5.71-.018-8.564a1.625,1.625,0,0,1,1.029-1.612q7.294-3.978,14.55-8.021a1.9,1.9,0,0,1,2.008-.025q7.881,4.34,15.767,8.672a1.3,1.3,0,0,1,.759,1.3q-.087,8.274-.108,16.547a1.5,1.5,0,0,1-.837,1.431q-7.721,4.61-15.823,8.568a1.607,1.607,0,0,1-1.7-.049q-7.44-4.183-14.927-8.29a1.5,1.5,0,0,1-.864-1.54c.022-2.807.009-5.614.009-8.42Z" transform="translate(-0.819 -0.983)"/><path class="cls-3" d="M75.745,69.7c-.348,2.685-.738,5.366-1.025,8.057A3.238,3.238,0,0,1,72.526,80.7c-2.959,1.346-5.735,3.064-8.585,4.629-1.693.929-3.407,1.825-5.065,2.807a2.18,2.18,0,0,1-2.146.208c-3.534-1.46-7.075-2.9-10.638-4.3a1.557,1.557,0,0,1-1.131-1.659,34.8,34.8,0,0,1,2.982-14.08,2.051,2.051,0,0,1,.854-1,69.5,69.5,0,0,1,10.124-5.6,3.96,3.96,0,0,1,2.224-.305A41.18,41.18,0,0,1,74,65.306c1.416.714,2.146,1.515,1.786,3.065a9.047,9.047,0,0,0-.113,1.323Z" transform="translate(-0.819 -0.983)"/><path class="cls-3" d="M75.741,129.357c.139,3.007.133,2.994-2.16,3.941a62.1,62.1,0,0,1-12.3,3.8,3.129,3.129,0,0,1-2.076-.177c-3.445-1.66-6.819-3.434-10.079-5.412a3.6,3.6,0,0,1-1.493-1.77,35.3,35.3,0,0,1-2.665-13.712,1.208,1.208,0,0,1,.877-1.33q5.583-2.32,11.124-4.729a1.461,1.461,0,0,1,1.437.078c5.059,2.828,10.115,5.66,15.2,8.45a1.951,1.951,0,0,1,.971,1.559A70.009,70.009,0,0,1,75.741,129.357Z" transform="translate(-0.819 -0.983)"/><path class="cls-3" d="M93.472,99.25c0-2.66.024-5.322-.014-7.982a1.98,1.98,0,0,1,.905-1.868c3.06-2.165,6.13-4.312,9.283-6.355a1.9,1.9,0,0,1,2.33,0,34.834,34.834,0,0,1,10.632,9.074,3.141,3.141,0,0,1,.7,1.744,84,84,0,0,1,.05,10.489,2.951,2.951,0,0,1-.717,1.882,45.374,45.374,0,0,1-11.038,9.574,1.663,1.663,0,0,1-2.168-.052q-4.532-3.318-9.158-6.52a1.94,1.94,0,0,1-.909-1.857c.042-2.71.016-5.42.016-8.131Z" transform="translate(-0.819 -0.983)"/><path class="cls-3" d="M32.136,99.7c2.8-.059,2.825-.07,3.9,2.434a49,49,0,0,0,7.167,12,2.778,2.778,0,0,1,.736,1.87,33.548,33.548,0,0,0,2.589,13.853c.3.677.137.862-.553,1.138a3.2,3.2,0,0,1-3.961-.963,43.138,43.138,0,0,1-12.8-28.232c-.147-2.372-.4-2.05,2-2.095C31.52,99.7,31.828,99.7,32.136,99.7Z" transform="translate(-0.819 -0.983)"/><path class="cls-3" d="M74.873,143.371a48.931,48.931,0,0,1-12.034-1.553c-1.06-.276-2.23-2.428-1.856-3.367.144-.362.481-.319.763-.372a63.721,63.721,0,0,0,14.1-4.629,3.007,3.007,0,0,1,1.64-.243,60.014,60.014,0,0,0,15.367-.1c1.451-.2,2.342.155,2.862,1.435a2.677,2.677,0,0,0,.219.39c1.707,2.763,1.7,2.759-1.392,4.182A47.457,47.457,0,0,1,74.873,143.371Z" transform="translate(-0.819 -0.983)"/><path class="cls-3" d="M32.071,98.628c-3.069.073-3.079.072-2.8-2.826A43.011,43.011,0,0,1,42.957,67.947a2.956,2.956,0,0,1,3.618-.066c.384.337.117.63,0,.927a33.15,33.15,0,0,0-2.642,14.144,2.242,2.242,0,0,1-.6,1.475c-3.1,4.239-6.087,8.539-7.958,13.445a1.046,1.046,0,0,1-1.145.763C33.511,98.605,32.791,98.628,32.071,98.628Z" transform="translate(-0.819 -0.983)"/><path class="cls-3" d="M94.175,65.8a62.836,62.836,0,0,0-16.963-.348,2.553,2.553,0,0,1-1.586-.435A38.383,38.383,0,0,0,62.49,60.546c-.473-.073-1.53.2-1.286-.748s-.34-2.291,1.242-2.7a47.621,47.621,0,0,1,11.4-1.62,48.166,48.166,0,0,1,22.477,5.058c1.04.518,1.253.921.52,1.841a23.524,23.524,0,0,0-1.693,2.639C94.845,65.528,94.505,65.909,94.175,65.8Z" transform="translate(-0.819 -0.983)"/><path class="cls-3" d="M98.833,136.871c-.39.031-.512-.188-.644-.4-.71-1.141-1.393-2.3-2.147-3.414-.369-.545-.161-.917.193-1.314a49.166,49.166,0,0,0,8.3-13.58,2.949,2.949,0,0,1,1.383-1.32,42.936,42.936,0,0,0,10.547-8.776c.343-.394.755-1.344,1.294-.889.737.622,2.071.983,1.68,2.49a43.647,43.647,0,0,1-5.865,13.265,44.9,44.9,0,0,1-13.886,13.43C99.387,136.548,99.079,136.725,98.833,136.871Z" transform="translate(-0.819 -0.983)"/><path class="cls-3" d="M119.582,89.808a3.853,3.853,0,0,1-1.743,1.671c-.485.29-.715-.425-.955-.734a33.733,33.733,0,0,0-10.32-8.54,4.6,4.6,0,0,1-1.953-1.985c-2.386-4.645-4.855-9.245-8.41-13.208-.23-.257-.595-.568-.4-.9.806-1.371,1.622-2.744,2.553-4.037.362-.5.824.078,1.168.291a44.17,44.17,0,0,1,17.289,19.362,39.466,39.466,0,0,1,2.6,7.411C119.456,89.331,119.509,89.521,119.582,89.808Z" transform="translate(-0.819 -0.983)"/><g class="cls-4"><path d="M40.671,22.17l-4.359,1.67q-.931-2.971-3.41-2.971a2.521,2.521,0,0,0-1.837.659,2.083,2.083,0,0,0-.677,1.538,1.937,1.937,0,0,0,.8,1.626,15.916,15.916,0,0,0,3.348,1.591,19.858,19.858,0,0,1,3.648,1.7,6.357,6.357,0,0,1,2.144,2.294,6.739,6.739,0,0,1,.818,3.366,7.2,7.2,0,0,1-2.312,5.511,8.728,8.728,0,0,1-6.2,2.153q-6.522,0-8.332-6.592L28.911,33.4q.844,3.621,3.85,3.621a3.354,3.354,0,0,0,2.224-.712,2.319,2.319,0,0,0,.852-1.872,2.347,2.347,0,0,0-.6-1.573A7.056,7.056,0,0,0,32.5,31.4a25.223,25.223,0,0,1-4.113-1.784,6.334,6.334,0,0,1-2.232-2.285,6.516,6.516,0,0,1-.879-3.384,7.142,7.142,0,0,1,2.083-5.3,7.482,7.482,0,0,1,5.511-2.065Q39.123,16.58,40.671,22.17Z" transform="translate(-0.819 -0.983)"/><path d="M60.956,28.937q0,12.375-8.7,12.375a7.427,7.427,0,0,1-6.521-3.155q-2.2-3.156-2.2-9.22,0-12.357,8.7-12.357a7.5,7.5,0,0,1,6.486,3.094Q60.956,22.767,60.956,28.937Zm-5.554,0q0-4.851-.756-6.46a2.592,2.592,0,0,0-4.8.009q-.756,1.617-.756,6.451,0,4.746.747,6.416a2.579,2.579,0,0,0,4.8.071Q55.4,33.823,55.4,28.937Z" transform="translate(-0.819 -0.983)"/><path d="M76.3,32.207l4.869.3a10.2,10.2,0,0,1-2.478,6.354,7.508,7.508,0,0,1-5.854,2.452,7.744,7.744,0,0,1-6.75-3.287q-2.32-3.286-2.32-9.053,0-5.817,2.3-9.1A7.806,7.806,0,0,1,72.91,16.58q7.5,0,8.173,9.281l-4.816.352q-.193-5.345-3.34-5.344A2.944,2.944,0,0,0,70.3,22.592q-.975,1.722-.975,6.679,0,4.429.9,6.091a2.887,2.887,0,0,0,2.69,1.661Q75.792,37.023,76.3,32.207Z" transform="translate(-0.819 -0.983)"/><path d="M84.265,16.949h5.273V40.943H84.265Z" transform="translate(-0.819 -0.983)"/><path d="M98.31,16.949h5.308l6.856,23.994H105.08l-1.2-4.957H97.125l-1.176,4.957H91.1Zm4.582,14.924-2.425-9.83-2.326,9.83Z" transform="translate(-0.819 -0.983)"/><path d="M112.478,16.949h5.273V36.443h7.735v4.5H112.478Z" transform="translate(-0.819 -0.983)"/></g><g class="cls-4"><path d="M34.449,156.126l-4.36,1.67q-.931-2.97-3.41-2.971a2.519,2.519,0,0,0-1.837.66,2.082,2.082,0,0,0-.677,1.538,1.939,1.939,0,0,0,.8,1.626,15.984,15.984,0,0,0,3.349,1.591,19.747,19.747,0,0,1,3.647,1.7,6.36,6.36,0,0,1,2.145,2.294,6.734,6.734,0,0,1,.817,3.366,7.2,7.2,0,0,1-2.311,5.51,8.727,8.727,0,0,1-6.2,2.154q-6.52,0-8.332-6.592l4.606-1.318q.843,3.621,3.849,3.621a3.357,3.357,0,0,0,2.224-.712,2.322,2.322,0,0,0,.853-1.872,2.346,2.346,0,0,0-.6-1.573,7.044,7.044,0,0,0-2.742-1.468,25.33,25.33,0,0,1-4.114-1.784,6.338,6.338,0,0,1-2.232-2.286,6.515,6.515,0,0,1-.879-3.383,7.141,7.141,0,0,1,2.083-5.3,7.486,7.486,0,0,1,5.511-2.066Q32.9,150.536,34.449,156.126Z" transform="translate(-0.819 -0.983)"/><path d="M54.734,162.894q0,12.375-8.7,12.375a7.431,7.431,0,0,1-6.522-3.155q-2.2-3.156-2.2-9.22,0-12.357,8.7-12.358A7.5,7.5,0,0,1,52.5,153.63Q54.735,156.725,54.734,162.894Zm-5.555,0q0-4.853-.756-6.46a2.591,2.591,0,0,0-4.8.009q-.756,1.617-.756,6.451,0,4.746.748,6.416a2.578,2.578,0,0,0,4.8.07Q49.179,167.781,49.179,162.894Z" transform="translate(-0.819 -0.983)"/><path d="M70.079,166.163l4.87.3a10.193,10.193,0,0,1-2.479,6.355,7.511,7.511,0,0,1-5.853,2.452,7.744,7.744,0,0,1-6.75-3.287q-2.32-3.288-2.321-9.053,0-5.818,2.3-9.106a7.806,7.806,0,0,1,6.838-3.287q7.506,0,8.174,9.282l-4.817.351q-.193-5.343-3.34-5.344a2.943,2.943,0,0,0-2.627,1.723q-.976,1.724-.976,6.68,0,4.43.9,6.091a2.888,2.888,0,0,0,2.69,1.661Q69.57,170.98,70.079,166.163Z" transform="translate(-0.819 -0.983)"/><path d="M89.714,166.163l4.869.3a10.192,10.192,0,0,1-2.478,6.355,7.512,7.512,0,0,1-5.854,2.452,7.746,7.746,0,0,1-6.75-3.287q-2.321-3.288-2.32-9.053,0-5.818,2.3-9.106a7.806,7.806,0,0,1,6.838-3.287q7.506,0,8.173,9.282l-4.816.351q-.194-5.343-3.34-5.344a2.946,2.946,0,0,0-2.628,1.723q-.975,1.724-.975,6.68,0,4.43.9,6.091a2.887,2.887,0,0,0,2.69,1.661Q89.2,170.98,89.714,166.163Z" transform="translate(-0.819 -0.983)"/><path d="M97.677,150.906h14.59v4.113h-9.316v5.572h7.242V164.7h-7.242v5.907h9.316V174.9H97.677Z" transform="translate(-0.819 -0.983)"/><path d="M114.851,150.906h7.541a21.1,21.1,0,0,1,3.366.2,5.583,5.583,0,0,1,2.364,1.09,5.9,5.9,0,0,1,1.872,2.425,8.479,8.479,0,0,1,.677,3.454q0,4.5-3.375,6.329l4.412,10.494h-5.74l-3.209-9.493h-2.635V174.9h-5.273Zm5.273,3.884v6.733h2.321q3.093,0,3.093-3.463a3.773,3.773,0,0,0-.457-1.96,2.45,2.45,0,0,0-1.063-1.037,4.521,4.521,0,0,0-1.784-.273Z" transform="translate(-0.819 -0.983)"/></g><path d="M148.9,5.007A4.025,4.025,0,0,0,144.872.983H4.92A4.024,4.024,0,0,0,.9,5.007V58.983H8.312V11.939a4,4,0,0,1,4-4H137.477a4,4,0,0,1,4,4V58.983H148.9Z" transform="translate(-0.819 -0.983)"/><path d="M141.344,132.451l.033,37.991a4,4,0,0,1-2.718,3.795L76.405,195.344a4.01,4.01,0,0,1-2.568,0L11.372,174.234a4,4,0,0,1-2.722-3.79l-.034-37.993H.964L.819,166.71C.8,172.29,2.958,184.615,8,187l59.852,20.56a14.374,14.374,0,0,0,12.168.053l63.439-21.147c5.067-2.34,5.334-14.177,5.359-19.758l.152-34.257Z" transform="translate(-0.819 -0.983)"/></g></g></svg>